<svg version="1.1" viewBox="0.0 0.0 960.0 540.0" fill="none" stroke="none" stroke-linecap="square" stroke-miterlimit="10" xmlns:xlink="http://www.w3.org/1999/xlink" xmlns="http://www.w3.org/2000/svg"><clipPath id="g80498c84ab_0_14.0"><path d="m0 0l960.0 0l0 540.0l-960.0 0l0 -540.0z" clip-rule="nonzero"/></clipPath><g clip-path="url(#g80498c84ab_0_14.0)"><path fill="#ffffff" d="m0 0l960.0 0l0 540.0l-960.0 0z" fill-rule="evenodd"/><path shape-rendering="crispEdges" fill="#d9ead3" d="m404.0315 58.010498l75.968506 0l0 57.196854l-75.968506 0l0 -57.196854z" fill-rule="nonzero"/><path shape-rendering="crispEdges" fill="#d9ead3" d="m480.0 58.010498l75.968506 0l0 57.196854l-75.968506 0l0 -57.196854z" fill-rule="nonzero"/><path stroke="#9e9e9e" stroke-width="2.0" stroke-linecap="butt" d="m404.0315 57.010498l0 59.196854" fill-rule="nonzero"/><path stroke="#9e9e9e" stroke-width="2.0" stroke-linecap="butt" d="m480.0 57.010498l0 59.196854" fill-rule="nonzero"/><path stroke="#9e9e9e" stroke-width="2.0" stroke-linecap="butt" d="m555.9685 57.010498l0 59.196854" fill-rule="nonzero"/><path stroke="#9e9e9e" stroke-width="2.0" stroke-linecap="butt" d="m403.0315 58.010498l153.93701 0" fill-rule="nonzero"/><path stroke="#9e9e9e" stroke-width="2.0" stroke-linecap="butt" d="m403.0315 115.20735l153.93701 0" fill-rule="nonzero"/><path fill="#000000" d="m453.2423 76.543l0 0.578125q-1.15625 0.1875 -2.0625 1.234375q-0.65625 0.78125 -1.953125 3.671875l-7.296875 16.1875l-0.515625 0l-7.265625 -16.84375q-1.3125 -3.046875 -1.765625 -3.578125q-0.4375 -0.53125 -1.671875 -0.671875l0 -0.578125l10.15625 0l0 0.578125l-0.34375 0q-1.375 0 -1.875 0.34375q-0.359375 0.234375 -0.359375 0.6875q0 0.28125 0.125 0.671875q0.125 0.375 0.84375 2.046875l4.515625 10.546875l4.1875 -9.390625q0.75 -1.703125 0.921875 -2.28125q0.171875 -0.578125 0.171875 -0.984375q0 -0.46875 -0.25 -0.828125q-0.25 -0.359375 -0.734375 -0.546875q-0.671875 -0.265625 -1.78125 -0.265625l0 -0.578125l6.953125 0z" fill-rule="nonzero"/><path fill="#000000" d="m523.47644 97.152374l0 0.578125l-11.078125 0l0 -0.578125l0.703125 0q0.921875 0 1.484375 -0.328125q0.40625 -0.21875 0.625 -0.75q0.171875 -0.375 0.171875 -1.96875l0 -13.9375q0 -1.625 -0.171875 -2.03125q-0.171875 -0.40625 -0.703125 -0.703125q-0.515625 -0.3125 -1.40625 -0.3125l-0.703125 0l0 -0.578125l11.078125 0l0 0.578125l-0.703125 0q-0.921875 0 -1.484375 0.328125q-0.40625 0.21875 -0.640625 0.75q-0.171875 0.375 -0.171875 1.96875l0 13.9375q0 1.625 0.171875 2.03125q0.1875 0.40625 0.703125 0.71875q0.53125 0.296875 1.421875 0.296875l0.703125 0z" fill-rule="nonzero"/><path fill="#000000" fill-opacity="0.0" d="m161.92914 270.56955l233.19684 0l0 57.19687l-233.19684 0z" fill-rule="evenodd"/><path fill="#000000" d="m171.86664 285.86456l1.265625 0l4.890625 8.625l0 -8.625l1.234375 0l0.171875 0l0 0.125q-0.109375 0.125 -0.140625 0.25q-0.015625 0.125 -0.015625 0.453125l0 10.796875l-1.03125 0l-5.125 -9.140625l0 9.140625l-1.25 0l0 -11.625zm12.515625 11.828125q-0.5 0 -0.953125 -0.15625q-0.453125 -0.140625 -0.8125 -0.4375q-0.359375 -0.3125 -0.625 -0.78125q-0.265625 -0.46875 -0.40625 -1.125q-0.140625 -0.65625 -0.140625 -1.46875l0.03125 -4.765625l1.296875 0l0 4.765625q0 0.796875 0.140625 1.359375q0.15625 0.5625 0.421875 0.90625q0.28125 0.328125 0.625 0.484375q0.359375 0.140625 0.75 0.140625q0.453125 0 0.859375 -0.171875q0.421875 -0.1875 0.734375 -0.53125q0.328125 -0.359375 0.515625 -0.921875q0.1875 -0.5625 0.1875 -1.328125l0 -4.703125l1.3125 0l0 7.203125q0 0.34375 0.015625 0.671875q0.03125 0.328125 0.171875 0.65625l-1.296875 0q-0.09375 -0.21875 -0.125 -0.4375q-0.03125 -0.21875 -0.046875 -0.4375q-0.015625 -0.21875 -0.015625 -0.4375q-0.203125 0.359375 -0.484375 0.640625q-0.28125 0.28125 -0.625 0.484375q-0.34375 0.1875 -0.734375 0.28125q-0.375 0.109375 -0.796875 0.109375zm5.90625 -0.203125l0 -8.53125l1.234375 0l0 0.84375q0.203125 -0.3125 0.46875 -0.546875q0.28125 -0.234375 0.609375 -0.359375q0.328125 -0.140625 0.65625 -0.140625q0.375 0 0.6875 0.171875q0.328125 0.15625 0.53125 0.4375q0.21875 0.265625 0.296875 0.640625q0.171875 -0.375 0.453125 -0.640625q0.296875 -0.28125 0.671875 -0.4375q0.390625 -0.171875 0.796875 -0.171875q0.421875 0 0.734375 0.171875q0.328125 0.171875 0.53125 0.46875q0.203125 0.28125 0.296875 0.6875q0.09375 0.390625 0.078125 0.859375l0 6.546875l-1.234375 0l0 -6.046875q0 -0.78125 -0.109375 -1.125q-0.09375 -0.359375 -0.28125 -0.46875q-0.1875 -0.109375 -0.40625 -0.109375q-0.359375 0 -0.671875 0.328125q-0.296875 0.328125 -0.5 0.8125q-0.1875 0.484375 -0.1875 0.96875l0 5.640625l-1.25 0l0 -5.9375q0 -1.0625 -0.203125 -1.40625q-0.1875 -0.359375 -0.734375 -0.359375q-0.203125 0 -0.421875 0.140625q-0.21875 0.140625 -0.40625 0.390625q-0.171875 0.25 -0.296875 0.625q-0.109375 0.375 -0.109375 0.859375l0 5.6875l-1.234375 0zm13.59375 0.203125q-0.53125 0 -1.0 -0.15625q-0.46875 -0.15625 -0.84375 -0.453125q-0.375 -0.296875 -0.6875 -0.71875l-0.453125 1.125l-0.859375 0l0 -12.40625l1.34375 0l0.1875 0l0 0.125q-0.125 0.125 -0.15625 0.25q-0.015625 0.125 -0.015625 0.453125l0 4.359375q0.203125 -0.34375 0.484375 -0.609375q0.28125 -0.28125 0.609375 -0.484375q0.34375 -0.21875 0.71875 -0.3125q0.375 -0.109375 0.71875 -0.109375q0.78125 0 1.421875 0.28125q0.65625 0.265625 1.109375 0.8125q0.46875 0.546875 0.71875 1.375q0.265625 0.8125 0.265625 1.921875q0 1.140625 -0.3125 2.0q-0.296875 0.84375 -0.8125 1.421875q-0.5 0.5625 -1.140625 0.84375q-0.625 0.28125 -1.296875 0.28125l0 0zm-0.171875 -1.1875q0.453125 0 0.859375 -0.171875q0.421875 -0.171875 0.75 -0.546875q0.34375 -0.390625 0.53125 -1.015625q0.203125 -0.640625 0.203125 -1.546875q0 -0.84375 -0.171875 -1.46875q-0.15625 -0.625 -0.46875 -1.03125q-0.3125 -0.421875 -0.75 -0.609375q-0.421875 -0.203125 -0.921875 -0.203125q-0.6875 0 -1.21875 0.421875q-0.53125 0.421875 -0.828125 1.1875q-0.296875 0.75 -0.296875 1.734375q0 0.734375 0.125 1.328125q0.140625 0.59375 0.40625 1.03125q0.265625 0.421875 0.703125 0.65625q0.4375 0.234375 1.078125 0.234375l0 0zm9.609375 1.171875q-0.9375 0 -1.703125 -0.28125q-0.765625 -0.296875 -1.3125 -0.859375q-0.546875 -0.5625 -0.84375 -1.390625q-0.296875 -0.828125 -0.296875 -1.890625q0 -1.078125 0.296875 -1.921875q0.3125 -0.84375 0.84375 -1.40625q0.53125 -0.578125 1.25 -0.875q0.71875 -0.296875 1.515625 -0.296875q0.734375 0 1.359375 0.25q0.640625 0.234375 1.109375 0.734375q0.46875 0.5 0.734375 1.265625q0.265625 0.75 0.265625 1.796875q0 0.15625 -0.015625 0.3125q0 0.15625 -0.015625 0.3125l-6.0625 0q0.03125 0.8125 0.265625 1.421875q0.25 0.609375 0.640625 1.0q0.390625 0.375 0.90625 0.5625q0.515625 0.1875 1.09375 0.1875q0.453125 0 0.84375 -0.09375q0.390625 -0.109375 0.734375 -0.328125q0.34375 -0.21875 0.625 -0.53125l0.75 0.71875q-0.359375 0.4375 -0.8125 0.734375q-0.453125 0.296875 -1.0 0.4375q-0.546875 0.140625 -1.171875 0.140625zm-2.828125 -5.296875l4.6875 0q0 -0.59375 -0.15625 -1.0625q-0.15625 -0.484375 -0.453125 -0.828125q-0.28125 -0.34375 -0.6875 -0.515625q-0.390625 -0.1875 -0.90625 -0.1875q-0.4375 0 -0.84375 0.15625q-0.40625 0.140625 -0.75 0.46875q-0.328125 0.328125 -0.5625 0.8125q-0.234375 0.484375 -0.328125 1.15625zm9.296875 -3.421875l1.40625 0l-0.0625 2.484375l-0.171875 -0.28125q0.109375 -0.578125 0.390625 -1.015625q0.28125 -0.453125 0.671875 -0.75q0.390625 -0.3125 0.859375 -0.46875q0.46875 -0.171875 0.96875 -0.171875q0.671875 0 1.234375 0.234375q0.578125 0.234375 1.03125 0.703125l-0.59375 1.046875l-0.078125 0.171875l-0.125 -0.078125q-0.046875 -0.15625 -0.125 -0.28125q-0.0625 -0.140625 -0.3125 -0.3125q-0.296875 -0.1875 -0.546875 -0.25q-0.25 -0.078125 -0.578125 -0.078125q-0.453125 0 -0.921875 0.1875q-0.46875 0.171875 -0.859375 0.546875q-0.375 0.375 -0.609375 0.953125q-0.21875 0.578125 -0.21875 1.375l0 4.53125l-1.359375 0l0 -8.546875zm21.109375 8.6875q-1.171875 0 -2.0625 -0.5625q-0.875 -0.578125 -1.375 -1.578125q-0.5 -1.0 -0.5 -2.28125q0 -1.3125 0.5 -2.3125q0.5 -1.0 1.375 -1.5625q0.890625 -0.578125 2.0625 -0.578125q1.15625 0 2.03125 0.578125q0.890625 0.5625 1.390625 1.5625q0.5 1.0 0.5 2.3125q0 1.28125 -0.5 2.28125q-0.5 1.0 -1.390625 1.578125q-0.875 0.5625 -2.03125 0.5625zm0 -1.125q0.734375 0 1.296875 -0.421875q0.5625 -0.4375 0.890625 -1.1875q0.328125 -0.75 0.328125 -1.71875q0 -0.96875 -0.328125 -1.703125q-0.328125 -0.75 -0.890625 -1.171875q-0.5625 -0.421875 -1.296875 -0.421875q-0.734375 0 -1.3125 0.421875q-0.5625 0.421875 -0.890625 1.171875q-0.328125 0.734375 -0.328125 1.703125q0 0.96875 0.328125 1.71875q0.328125 0.75 0.890625 1.1875q0.578125 0.421875 1.3125 0.421875zm7.671875 -6.5l-1.84375 0l0 -1.0625l1.84375 0l0 -0.703125q0 -1.140625 0.40625 -1.859375q0.40625 -0.734375 1.109375 -1.078125q0.71875 -0.34375 1.625 -0.34375q0.796875 0 1.5 0.296875q0.703125 0.28125 1.171875 0.875l-0.71875 0.984375l-0.109375 0.15625l-0.109375 -0.078125q-0.015625 -0.140625 -0.078125 -0.296875q-0.046875 -0.15625 -0.25 -0.375q-0.3125 -0.265625 -0.609375 -0.375q-0.296875 -0.109375 -0.765625 -0.109375q-0.53125 0 -0.96875 0.21875q-0.421875 0.21875 -0.671875 0.6875q-0.234375 0.46875 -0.234375 1.296875l0 0.703125l2.796875 0l0 1.0625l-2.796875 0l0 7.46875l-1.296875 0l0 -7.46875zm17.0 6.421875q1.015625 -1.03125 1.84375 -1.859375q0.84375 -0.84375 1.5 -1.5625q0.671875 -0.71875 1.140625 -1.359375q0.46875 -0.640625 0.703125 -1.265625q0.25 -0.625 0.25 -1.3125q0 -0.609375 -0.15625 -1.015625q-0.140625 -0.40625 -0.421875 -0.65625q-0.265625 -0.25 -0.640625 -0.359375q-0.359375 -0.125 -0.765625 -0.125q-0.453125 0 -0.859375 0.140625q-0.40625 0.125 -0.78125 0.375q-0.375 0.25 -0.6875 0.65625q-0.171875 0.265625 -0.21875 0.40625q-0.03125 0.140625 -0.015625 0.296875l-0.0625 0.09375l-0.15625 -0.09375l-0.953125 -0.75q0.375 -0.734375 0.9375 -1.234375q0.5625 -0.5 1.265625 -0.765625q0.71875 -0.265625 1.515625 -0.265625q0.984375 0 1.734375 0.40625q0.75 0.40625 1.171875 1.15625q0.4375 0.734375 0.4375 1.765625q0 0.765625 -0.28125 1.484375q-0.28125 0.71875 -0.765625 1.40625q-0.484375 0.6875 -1.140625 1.375q-0.65625 0.6875 -1.390625 1.4375q-0.734375 0.734375 -1.515625 1.53125l4.328125 0q0.3125 0 0.4375 -0.03125q0.140625 -0.046875 0.25 -0.15625l0.125 0l0 0.1875l0 1.140625l-6.828125 0l0 -1.046875zm10.046875 -4.203125l0 -1.25l5.21875 0l0 1.25l-5.21875 0zm8.71875 5.25l0 -1.078125l2.53125 0l0 -10.25l-2.421875 0l0 -1.078125l3.78125 0l0 11.328125l2.5 0l0 1.078125l-6.390625 0zm12.53125 0.15625q-1.171875 0 -2.0625 -0.5625q-0.875 -0.578125 -1.375 -1.578125q-0.5 -1.0 -0.5 -2.28125q0 -1.3125 0.5 -2.3125q0.5 -1.0 1.375 -1.5625q0.890625 -0.578125 2.0625 -0.578125q1.15625 0 2.03125 0.578125q0.890625 0.5625 1.390625 1.5625q0.5 1.0 0.5 2.3125q0 1.28125 -0.5 2.28125q-0.5 1.0 -1.390625 1.578125q-0.875 0.5625 -2.03125 0.5625zm0 -1.125q0.734375 0 1.296875 -0.421875q0.5625 -0.4375 0.890625 -1.1875q0.328125 -0.75 0.328125 -1.71875q0 -0.96875 -0.328125 -1.703125q-0.328125 -0.75 -0.890625 -1.171875q-0.5625 -0.421875 -1.296875 -0.421875q-0.734375 0 -1.3125 0.421875q-0.5625 0.421875 -0.890625 1.171875q-0.328125 0.734375 -0.328125 1.703125q0 0.96875 0.328125 1.71875q0.328125 0.75 0.890625 1.1875q0.578125 0.421875 1.3125 0.421875zm6.0 0.96875l0 -8.53125l1.3125 0l0 1.515625q0.328125 -0.515625 0.765625 -0.890625q0.453125 -0.390625 1.0 -0.609375q0.546875 -0.21875 1.125 -0.21875q0.703125 0 1.265625 0.359375q0.5625 0.359375 0.890625 1.140625q0.34375 0.78125 0.34375 2.0625l0 5.171875l-1.3125 0l0 -5.125q0 -0.90625 -0.203125 -1.4375q-0.203125 -0.53125 -0.5625 -0.765625q-0.359375 -0.234375 -0.796875 -0.234375q-0.4375 0 -0.875 0.1875q-0.4375 0.1875 -0.8125 0.53125q-0.375 0.34375 -0.609375 0.84375q-0.21875 0.484375 -0.21875 1.09375l0 4.90625l-1.3125 0zm12.59375 3.203125q-0.890625 0 -1.609375 -0.140625q-0.71875 -0.140625 -1.234375 -0.40625q-0.515625 -0.265625 -0.796875 -0.6875q-0.265625 -0.40625 -0.265625 -0.96875q0 -0.515625 0.21875 -0.921875q0.234375 -0.40625 0.59375 -0.671875q0.375 -0.28125 0.796875 -0.40625l0.5625 0.328125q-0.34375 0.203125 -0.546875 0.40625q-0.203125 0.203125 -0.296875 0.46875q-0.09375 0.28125 -0.09375 0.65625q0 0.3125 0.1875 0.5625q0.1875 0.25 0.53125 0.421875q0.34375 0.171875 0.84375 0.265625q0.5 0.09375 1.125 0.09375q0.859375 0 1.390625 -0.1875q0.53125 -0.171875 0.796875 -0.484375q0.265625 -0.296875 0.265625 -0.6875q0 -0.421875 -0.15625 -0.6875q-0.15625 -0.25 -0.625 -0.375q-0.453125 -0.140625 -1.40625 -0.140625q-0.65625 0 -1.203125 -0.046875q-0.53125 -0.0625 -0.96875 -0.1875q-0.421875 -0.140625 -0.71875 -0.328125q-0.28125 -0.203125 -0.4375 -0.46875q-0.140625 -0.28125 -0.140625 -0.65625q0 -0.484375 0.265625 -0.9375q0.265625 -0.453125 0.734375 -0.859375l0.640625 0.5q-0.1875 0.203125 -0.296875 0.375q-0.109375 0.15625 -0.15625 0.296875q-0.046875 0.140625 -0.046875 0.296875q0 0.296875 0.21875 0.484375q0.234375 0.1875 0.8125 0.28125q0.578125 0.078125 1.578125 0.078125q0.984375 0 1.59375 0.15625q0.625 0.15625 0.953125 0.46875q0.328125 0.296875 0.453125 0.6875q0.125 0.390625 0.125 0.859375q0 0.5 -0.203125 0.953125q-0.1875 0.453125 -0.625 0.8125q-0.421875 0.375 -1.125 0.578125q-0.703125 0.21875 -1.734375 0.21875zm-0.390625 -6.09375q-0.921875 0 -1.59375 -0.390625q-0.671875 -0.40625 -1.03125 -1.09375q-0.359375 -0.6875 -0.359375 -1.5q0 -0.828125 0.359375 -1.5q0.359375 -0.671875 1.03125 -1.0625q0.671875 -0.40625 1.59375 -0.40625q0.9375 0 1.59375 0.40625q0.65625 0.390625 1.015625 1.0625q0.375 0.671875 0.375 1.5q0 0.8125 -0.375 1.5q-0.359375 0.6875 -1.015625 1.09375q-0.65625 0.390625 -1.59375 0.390625zm0 -1.125q0.53125 0 0.953125 -0.25q0.421875 -0.25 0.65625 -0.671875q0.25 -0.4375 0.25 -0.9375q0 -0.53125 -0.25 -0.9375q-0.234375 -0.421875 -0.65625 -0.671875q-0.421875 -0.265625 -0.953125 -0.265625q-0.546875 0 -0.96875 0.265625q-0.421875 0.25 -0.671875 0.671875q-0.234375 0.40625 -0.234375 0.9375q0 0.5 0.234375 0.9375q0.25 0.421875 0.671875 0.671875q0.421875 0.25 0.96875 0.25zm2.484375 -3.125l-0.53125 -0.625q0.546875 -0.53125 1.125 -0.78125q0.59375 -0.265625 1.390625 -0.203125l0.171875 1.09375q-0.609375 -0.046875 -1.15625 0.046875q-0.546875 0.09375 -1.0 0.46875zm17.265625 7.328125q-0.953125 0 -1.78125 -0.34375q-0.8125 -0.34375 -1.4375 -1.0625q-0.625 -0.734375 -0.984375 -1.859375q-0.34375 -1.125 -0.34375 -2.671875q0 -1.359375 0.25 -2.375q0.265625 -1.015625 0.71875 -1.703125q0.453125 -0.6875 1.03125 -1.09375q0.578125 -0.421875 1.203125 -0.609375q0.640625 -0.1875 1.28125 -0.1875q1.265625 0 2.15625 0.625q0.890625 0.625 1.34375 1.671875l-1.125 0.515625l-0.15625 0.078125l-0.0625 -0.125q0.0625 -0.15625 0 -0.265625q-0.0625 -0.125 -0.203125 -0.390625q-0.46875 -0.640625 -0.96875 -0.84375q-0.484375 -0.21875 -1.03125 -0.21875q-0.71875 0 -1.3125 0.328125q-0.59375 0.328125 -1.015625 0.953125q-0.40625 0.625 -0.625 1.515625q-0.21875 0.890625 -0.21875 2.03125q0 1.109375 0.25 2.0q0.25 0.890625 0.6875 1.546875q0.453125 0.65625 1.03125 1.015625q0.59375 0.34375 1.265625 0.34375q0.46875 0 0.90625 -0.15625q0.4375 -0.171875 0.796875 -0.5q0.375 -0.328125 0.640625 -0.75l0.96875 0.625q-0.5625 0.9375 -1.34375 1.421875q-0.78125 0.484375 -1.921875 0.484375l0 0zm5.375 -12.59375l1.296875 0l0.171875 0l0 0.125q-0.109375 0.125 -0.140625 0.25q-0.015625 0.125 -0.015625 0.453125l0 4.5625q0.328125 -0.515625 0.78125 -0.890625q0.46875 -0.390625 0.96875 -0.609375q0.515625 -0.21875 1.046875 -0.21875q0.765625 0 1.34375 0.359375q0.59375 0.359375 0.921875 1.140625q0.328125 0.78125 0.328125 2.0625l0 5.171875l-1.3125 0l0 -5.125q0 -0.90625 -0.203125 -1.4375q-0.203125 -0.53125 -0.5625 -0.765625q-0.34375 -0.234375 -0.796875 -0.234375q-0.34375 0 -0.703125 0.125q-0.34375 0.109375 -0.671875 0.328125q-0.328125 0.21875 -0.59375 0.546875q-0.25 0.328125 -0.40625 0.75q-0.140625 0.40625 -0.140625 0.90625l0 4.90625l-1.3125 0l0 -12.40625zm12.640625 12.5625q-1.171875 0 -2.0625 -0.5625q-0.875 -0.578125 -1.375 -1.578125q-0.5 -1.0 -0.5 -2.28125q0 -1.3125 0.5 -2.3125q0.5 -1.0 1.375 -1.5625q0.890625 -0.578125 2.0625 -0.578125q1.15625 0 2.03125 0.578125q0.890625 0.5625 1.390625 1.5625q0.5 1.0 0.5 2.3125q0 1.28125 -0.5 2.28125q-0.5 1.0 -1.390625 1.578125q-0.875 0.5625 -2.03125 0.5625zm0 -1.125q0.734375 0 1.296875 -0.421875q0.5625 -0.4375 0.890625 -1.1875q0.328125 -0.75 0.328125 -1.71875q0 -0.96875 -0.328125 -1.703125q-0.328125 -0.75 -0.890625 -1.171875q-0.5625 -0.421875 -1.296875 -0.421875q-0.734375 0 -1.3125 0.421875q-0.5625 0.421875 -0.890625 1.171875q-0.328125 0.734375 -0.328125 1.703125q0 0.96875 0.328125 1.71875q0.328125 0.75 0.890625 1.1875q0.578125 0.421875 1.3125 0.421875zm6.875 -7.5625l1.40625 0l-0.0625 2.484375l-0.171875 -0.28125q0.109375 -0.578125 0.390625 -1.015625q0.28125 -0.453125 0.671875 -0.75q0.390625 -0.3125 0.859375 -0.46875q0.46875 -0.171875 0.96875 -0.171875q0.671875 0 1.234375 0.234375q0.578125 0.234375 1.03125 0.703125l-0.59375 1.046875l-0.078125 0.171875l-0.125 -0.078125q-0.046875 -0.15625 -0.125 -0.28125q-0.0625 -0.140625 -0.3125 -0.3125q-0.296875 -0.1875 -0.546875 -0.25q-0.25 -0.078125 -0.578125 -0.078125q-0.453125 0 -0.921875 0.1875q-0.46875 0.171875 -0.859375 0.546875q-0.375 0.375 -0.609375 0.953125q-0.21875 0.578125 -0.21875 1.375l0 4.53125l-1.359375 0l0 -8.546875zm11.46875 8.71875q-0.640625 0 -1.265625 -0.28125q-0.625 -0.28125 -1.140625 -0.84375q-0.515625 -0.5625 -0.8125 -1.40625q-0.296875 -0.859375 -0.296875 -2.0q0 -1.171875 0.3125 -2.0q0.3125 -0.84375 0.828125 -1.375q0.53125 -0.53125 1.15625 -0.78125q0.640625 -0.25 1.296875 -0.25q0.59375 0 1.0625 0.1875q0.484375 0.1875 0.84375 0.515625q0.375 0.328125 0.578125 0.765625l0 -5.125l1.234375 0l0.1875 0l0 0.125q-0.109375 0.125 -0.140625 0.25q-0.03125 0.125 -0.03125 0.453125l0.015625 10.25q0 0.34375 0.03125 0.671875q0.03125 0.328125 0.15625 0.65625l-1.328125 0q-0.09375 -0.21875 -0.125 -0.4375q-0.03125 -0.234375 -0.046875 -0.4375q-0.015625 -0.21875 -0.015625 -0.453125q-0.25 0.453125 -0.625 0.796875q-0.375 0.34375 -0.84375 0.53125q-0.46875 0.1875 -1.03125 0.1875l0 0zm0.21875 -1.171875q0.609375 0 1.03125 -0.25q0.4375 -0.265625 0.6875 -0.71875q0.265625 -0.453125 0.390625 -1.0625q0.125 -0.609375 0.125 -1.296875q0 -0.953125 -0.25 -1.703125q-0.234375 -0.75 -0.765625 -1.1875q-0.515625 -0.453125 -1.34375 -0.453125q-0.546875 0 -1.0 0.21875q-0.4375 0.21875 -0.734375 0.625q-0.28125 0.40625 -0.4375 0.984375q-0.140625 0.5625 -0.140625 1.28125q0 1.0625 0.28125 1.859375q0.28125 0.796875 0.8125 1.25q0.546875 0.453125 1.34375 0.453125l0 0z" fill-rule="nonzero"/><path fill="#000000" d="m172.02289 319.48956l0 -11.625l3.734375 0q1.3125 0 2.109375 0.453125q0.8125 0.4375 1.1875 1.1875q0.375 0.734375 0.375 1.640625q0 0.671875 -0.203125 1.25q-0.203125 0.578125 -0.640625 1.03125q-0.4375 0.453125 -1.109375 0.703125q-0.671875 0.234375 -1.625 0.234375l-2.484375 0l0 5.125l-1.34375 0zm1.34375 -6.28125l2.34375 0q0.859375 0 1.375 -0.25q0.515625 -0.265625 0.75 -0.71875q0.25 -0.453125 0.25 -1.046875q0 -0.578125 -0.25 -1.046875q-0.234375 -0.46875 -0.75 -0.75q-0.515625 -0.296875 -1.359375 -0.296875l-2.359375 0l0 4.109375zm9.109375 -2.25l1.40625 0l-0.0625 2.484375l-0.171875 -0.28125q0.109375 -0.578125 0.390625 -1.015625q0.28125 -0.453125 0.671875 -0.75q0.390625 -0.3125 0.859375 -0.46875q0.46875 -0.171875 0.96875 -0.171875q0.671875 0 1.234375 0.234375q0.578125 0.234375 1.03125 0.703125l-0.59375 1.046875l-0.078125 0.171875l-0.125 -0.078125q-0.046875 -0.15625 -0.125 -0.28125q-0.0625 -0.140625 -0.3125 -0.3125q-0.296875 -0.1875 -0.546875 -0.25q-0.25 -0.078125 -0.578125 -0.078125q-0.453125 0 -0.921875 0.1875q-0.46875 0.171875 -0.859375 0.546875q-0.375 0.375 -0.609375 0.953125q-0.21875 0.578125 -0.21875 1.375l0 4.53125l-1.359375 0l0 -8.546875zm11.78125 8.6875q-1.171875 0 -2.0625 -0.5625q-0.875 -0.578125 -1.375 -1.578125q-0.5 -1.0 -0.5 -2.28125q0 -1.3125 0.5 -2.3125q0.5 -1.0 1.375 -1.5625q0.890625 -0.578125 2.0625 -0.578125q1.15625 0 2.03125 0.578125q0.890625 0.5625 1.390625 1.5625q0.5 1.0 0.5 2.3125q0 1.28125 -0.5 2.28125q-0.5 1.0 -1.390625 1.578125q-0.875 0.5625 -2.03125 0.5625zm0 -1.125q0.734375 0 1.296875 -0.421875q0.5625 -0.4375 0.890625 -1.1875q0.328125 -0.75 0.328125 -1.71875q0 -0.96875 -0.328125 -1.703125q-0.328125 -0.75 -0.890625 -1.171875q-0.5625 -0.421875 -1.296875 -0.421875q-0.734375 0 -1.3125 0.421875q-0.5625 0.421875 -0.890625 1.171875q-0.328125 0.734375 -0.328125 1.703125q0 0.96875 0.328125 1.71875q0.328125 0.75 0.890625 1.1875q0.578125 0.421875 1.3125 0.421875zm9.265625 4.171875q-0.890625 0 -1.609375 -0.140625q-0.71875 -0.140625 -1.234375 -0.40625q-0.515625 -0.265625 -0.796875 -0.6875q-0.265625 -0.40625 -0.265625 -0.96875q0 -0.515625 0.21875 -0.921875q0.234375 -0.40625 0.59375 -0.671875q0.375 -0.28125 0.796875 -0.40625l0.5625 0.328125q-0.34375 0.203125 -0.546875 0.40625q-0.203125 0.203125 -0.296875 0.46875q-0.09375 0.28125 -0.09375 0.65625q0 0.3125 0.1875 0.5625q0.1875 0.25 0.53125 0.421875q0.34375 0.171875 0.84375 0.265625q0.5 0.09375 1.125 0.09375q0.859375 0 1.390625 -0.1875q0.53125 -0.171875 0.796875 -0.484375q0.265625 -0.296875 0.265625 -0.6875q0 -0.421875 -0.15625 -0.6875q-0.15625 -0.25 -0.625 -0.375q-0.453125 -0.140625 -1.40625 -0.140625q-0.65625 0 -1.203125 -0.046875q-0.53125 -0.0625 -0.96875 -0.1875q-0.421875 -0.140625 -0.71875 -0.328125q-0.28125 -0.203125 -0.4375 -0.46875q-0.140625 -0.28125 -0.140625 -0.65625q0 -0.484375 0.265625 -0.9375q0.265625 -0.453125 0.734375 -0.859375l0.640625 0.5q-0.1875 0.203125 -0.296875 0.375q-0.109375 0.15625 -0.15625 0.296875q-0.046875 0.140625 -0.046875 0.296875q0 0.296875 0.21875 0.484375q0.234375 0.1875 0.8125 0.28125q0.578125 0.078125 1.578125 0.078125q0.984375 0 1.59375 0.15625q0.625 0.15625 0.953125 0.46875q0.328125 0.296875 0.453125 0.6875q0.125 0.390625 0.125 0.859375q0 0.5 -0.203125 0.953125q-0.1875 0.453125 -0.625 0.8125q-0.421875 0.375 -1.125 0.578125q-0.703125 0.21875 -1.734375 0.21875zm-0.390625 -6.09375q-0.921875 0 -1.59375 -0.390625q-0.671875 -0.40625 -1.03125 -1.09375q-0.359375 -0.6875 -0.359375 -1.5q0 -0.828125 0.359375 -1.5q0.359375 -0.671875 1.03125 -1.0625q0.671875 -0.40625 1.59375 -0.40625q0.9375 0 1.59375 0.40625q0.65625 0.390625 1.015625 1.0625q0.375 0.671875 0.375 1.5q0 0.8125 -0.375 1.5q-0.359375 0.6875 -1.015625 1.09375q-0.65625 0.390625 -1.59375 0.390625zm0 -1.125q0.53125 0 0.953125 -0.25q0.421875 -0.25 0.65625 -0.671875q0.25 -0.4375 0.25 -0.9375q0 -0.53125 -0.25 -0.9375q-0.234375 -0.421875 -0.65625 -0.671875q-0.421875 -0.265625 -0.953125 -0.265625q-0.546875 0 -0.96875 0.265625q-0.421875 0.25 -0.671875 0.671875q-0.234375 0.40625 -0.234375 0.9375q0 0.5 0.234375 0.9375q0.25 0.421875 0.671875 0.671875q0.421875 0.25 0.96875 0.25zm2.484375 -3.125l-0.53125 -0.625q0.546875 -0.53125 1.125 -0.78125q0.59375 -0.265625 1.390625 -0.203125l0.171875 1.09375q-0.609375 -0.046875 -1.15625 0.046875q-0.546875 0.09375 -1.0 0.46875zm4.84375 -1.390625l1.40625 0l-0.0625 2.484375l-0.171875 -0.28125q0.109375 -0.578125 0.390625 -1.015625q0.28125 -0.453125 0.671875 -0.75q0.390625 -0.3125 0.859375 -0.46875q0.46875 -0.171875 0.96875 -0.171875q0.671875 0 1.234375 0.234375q0.578125 0.234375 1.03125 0.703125l-0.59375 1.046875l-0.078125 0.171875l-0.125 -0.078125q-0.046875 -0.15625 -0.125 -0.28125q-0.0625 -0.140625 -0.3125 -0.3125q-0.296875 -0.1875 -0.546875 -0.25q-0.25 -0.078125 -0.578125 -0.078125q-0.453125 0 -0.921875 0.1875q-0.46875 0.171875 -0.859375 0.546875q-0.375 0.375 -0.609375 0.953125q-0.21875 0.578125 -0.21875 1.375l0 4.53125l-1.359375 0l0 -8.546875zm12.1875 8.71875q-0.9375 0 -1.703125 -0.28125q-0.765625 -0.296875 -1.3125 -0.859375q-0.546875 -0.5625 -0.84375 -1.390625q-0.296875 -0.828125 -0.296875 -1.890625q0 -1.078125 0.296875 -1.921875q0.3125 -0.84375 0.84375 -1.40625q0.53125 -0.578125 1.25 -0.875q0.71875 -0.296875 1.515625 -0.296875q0.734375 0 1.359375 0.25q0.640625 0.234375 1.109375 0.734375q0.46875 0.5 0.734375 1.265625q0.265625 0.75 0.265625 1.796875q0 0.15625 -0.015625 0.3125q0 0.15625 -0.015625 0.3125l-6.0625 0q0.03125 0.8125 0.265625 1.421875q0.25 0.609375 0.640625 1.0q0.390625 0.375 0.90625 0.5625q0.515625 0.1875 1.09375 0.1875q0.453125 0 0.84375 -0.09375q0.390625 -0.109375 0.734375 -0.328125q0.34375 -0.21875 0.625 -0.53125l0.75 0.71875q-0.359375 0.4375 -0.8125 0.734375q-0.453125 0.296875 -1.0 0.4375q-0.546875 0.140625 -1.171875 0.140625zm-2.828125 -5.296875l4.6875 0q0 -0.59375 -0.15625 -1.0625q-0.15625 -0.484375 -0.453125 -0.828125q-0.28125 -0.34375 -0.6875 -0.515625q-0.390625 -0.1875 -0.90625 -0.1875q-0.4375 0 -0.84375 0.15625q-0.40625 0.140625 -0.75 0.46875q-0.328125 0.328125 -0.5625 0.8125q-0.234375 0.484375 -0.328125 1.15625zm11.765625 5.296875q-0.71875 0 -1.359375 -0.15625q-0.640625 -0.140625 -1.21875 -0.4375q-0.5625 -0.296875 -1.046875 -0.75l0.75 -1.265625l0.109375 -0.171875l0.109375 0.078125q0.046875 0.140625 0.09375 0.3125q0.046875 0.15625 0.25 0.375q0.390625 0.390625 0.9375 0.640625q0.546875 0.25 1.40625 0.25q0.6875 0 1.15625 -0.15625q0.484375 -0.171875 0.75 -0.484375q0.265625 -0.3125 0.265625 -0.71875q0 -0.28125 -0.125 -0.484375q-0.109375 -0.21875 -0.359375 -0.40625q-0.25 -0.1875 -0.671875 -0.375q-0.40625 -0.1875 -1.0 -0.375q-0.96875 -0.28125 -1.703125 -0.65625q-0.71875 -0.375 -1.109375 -0.859375q-0.390625 -0.5 -0.390625 -1.125q0 -0.65625 0.34375 -1.125q0.359375 -0.484375 1.0625 -0.75q0.703125 -0.28125 1.734375 -0.28125q0.59375 0 1.078125 0.09375q0.484375 0.078125 0.890625 0.25q0.40625 0.15625 0.75 0.421875q0.359375 0.25 0.671875 0.578125l-0.765625 0.9375l-0.140625 0.140625l-0.078125 -0.09375q-0.03125 -0.140625 -0.09375 -0.28125q-0.0625 -0.140625 -0.265625 -0.34375q-0.4375 -0.34375 -0.984375 -0.515625q-0.53125 -0.171875 -1.03125 -0.171875q-0.75 0 -1.296875 0.265625q-0.53125 0.25 -0.53125 0.796875q0 0.28125 0.1875 0.546875q0.203125 0.265625 0.71875 0.546875q0.53125 0.265625 1.5 0.546875q1.0625 0.328125 1.703125 0.671875q0.640625 0.34375 0.921875 0.796875q0.296875 0.453125 0.296875 1.0625q0 0.71875 -0.390625 1.328125q-0.375 0.609375 -1.15625 0.984375q-0.78125 0.359375 -1.96875 0.359375l0 0zm9.328125 0q-0.71875 0 -1.359375 -0.15625q-0.640625 -0.140625 -1.21875 -0.4375q-0.5625 -0.296875 -1.046875 -0.75l0.75 -1.265625l0.109375 -0.171875l0.109375 0.078125q0.046875 0.140625 0.09375 0.3125q0.046875 0.15625 0.25 0.375q0.390625 0.390625 0.9375 0.640625q0.546875 0.25 1.40625 0.25q0.6875 0 1.15625 -0.15625q0.484375 -0.171875 0.75 -0.484375q0.265625 -0.3125 0.265625 -0.71875q0 -0.28125 -0.125 -0.484375q-0.109375 -0.21875 -0.359375 -0.40625q-0.25 -0.1875 -0.671875 -0.375q-0.40625 -0.1875 -1.0 -0.375q-0.96875 -0.28125 -1.703125 -0.65625q-0.71875 -0.375 -1.109375 -0.859375q-0.390625 -0.5 -0.390625 -1.125q0 -0.65625 0.34375 -1.125q0.359375 -0.484375 1.0625 -0.75q0.703125 -0.28125 1.734375 -0.28125q0.59375 0 1.078125 0.09375q0.484375 0.078125 0.890625 0.25q0.40625 0.15625 0.75 0.421875q0.359375 0.25 0.671875 0.578125l-0.765625 0.9375l-0.140625 0.140625l-0.078125 -0.09375q-0.03125 -0.140625 -0.09375 -0.28125q-0.0625 -0.140625 -0.265625 -0.34375q-0.4375 -0.34375 -0.984375 -0.515625q-0.53125 -0.171875 -1.03125 -0.171875q-0.75 0 -1.296875 0.265625q-0.53125 0.25 -0.53125 0.796875q0 0.28125 0.1875 0.546875q0.203125 0.265625 0.71875 0.546875q0.53125 0.265625 1.5 0.546875q1.0625 0.328125 1.703125 0.671875q0.640625 0.34375 0.921875 0.796875q0.296875 0.453125 0.296875 1.0625q0 0.71875 -0.390625 1.328125q-0.375 0.609375 -1.15625 0.984375q-0.78125 0.359375 -1.96875 0.359375l0 0zm6.5 -0.1875l0 -1.078125l2.1875 0l0 -6.359375l-2.0625 0l0 -1.09375l3.40625 0l0 7.453125l2.0 0l0 1.078125l-5.53125 0zm2.875 -10.3125q-0.390625 0 -0.671875 -0.28125q-0.28125 -0.28125 -0.28125 -0.671875q0 -0.40625 0.265625 -0.6875q0.28125 -0.28125 0.6875 -0.28125q0.390625 0 0.671875 0.296875q0.296875 0.28125 0.296875 0.671875q0 0.390625 -0.296875 0.671875q-0.28125 0.28125 -0.671875 0.28125zm9.265625 10.46875q-1.171875 0 -2.0625 -0.5625q-0.875 -0.578125 -1.375 -1.578125q-0.5 -1.0 -0.5 -2.28125q0 -1.3125 0.5 -2.3125q0.5 -1.0 1.375 -1.5625q0.890625 -0.578125 2.0625 -0.578125q1.15625 0 2.03125 0.578125q0.890625 0.5625 1.390625 1.5625q0.5 1.0 0.5 2.3125q0 1.28125 -0.5 2.28125q-0.5 1.0 -1.390625 1.578125q-0.875 0.5625 -2.03125 0.5625zm0 -1.125q0.734375 0 1.296875 -0.421875q0.5625 -0.4375 0.890625 -1.1875q0.328125 -0.75 0.328125 -1.71875q0 -0.96875 -0.328125 -1.703125q-0.328125 -0.75 -0.890625 -1.171875q-0.5625 -0.421875 -1.296875 -0.421875q-0.734375 0 -1.3125 0.421875q-0.5625 0.421875 -0.890625 1.171875q-0.328125 0.734375 -0.328125 1.703125q0 0.96875 0.328125 1.71875q0.328125 0.75 0.890625 1.1875q0.578125 0.421875 1.3125 0.421875zm6.0 0.96875l0 -8.53125l1.3125 0l0 1.515625q0.328125 -0.515625 0.765625 -0.890625q0.453125 -0.390625 1.0 -0.609375q0.546875 -0.21875 1.125 -0.21875q0.703125 0 1.265625 0.359375q0.5625 0.359375 0.890625 1.140625q0.34375 0.78125 0.34375 2.0625l0 5.171875l-1.3125 0l0 -5.125q0 -0.90625 -0.203125 -1.4375q-0.203125 -0.53125 -0.5625 -0.765625q-0.359375 -0.234375 -0.796875 -0.234375q-0.4375 0 -0.875 0.1875q-0.4375 0.1875 -0.8125 0.53125q-0.375 0.34375 -0.609375 0.84375q-0.21875 0.484375 -0.21875 1.09375l0 4.90625l-1.3125 0zm12.671875 0.1875q-0.71875 0 -1.359375 -0.15625q-0.640625 -0.140625 -1.21875 -0.4375q-0.5625 -0.296875 -1.046875 -0.75l0.75 -1.265625l0.109375 -0.171875l0.109375 0.078125q0.046875 0.140625 0.09375 0.3125q0.046875 0.15625 0.25 0.375q0.390625 0.390625 0.9375 0.640625q0.546875 0.25 1.40625 0.25q0.6875 0 1.15625 -0.15625q0.484375 -0.171875 0.75 -0.484375q0.265625 -0.3125 0.265625 -0.71875q0 -0.28125 -0.125 -0.484375q-0.109375 -0.21875 -0.359375 -0.40625q-0.25 -0.1875 -0.671875 -0.375q-0.40625 -0.1875 -1.0 -0.375q-0.96875 -0.28125 -1.703125 -0.65625q-0.71875 -0.375 -1.109375 -0.859375q-0.390625 -0.5 -0.390625 -1.125q0 -0.65625 0.34375 -1.125q0.359375 -0.484375 1.0625 -0.75q0.703125 -0.28125 1.734375 -0.28125q0.59375 0 1.078125 0.09375q0.484375 0.078125 0.890625 0.25q0.40625 0.15625 0.75 0.421875q0.359375 0.25 0.671875 0.578125l-0.765625 0.9375l-0.140625 0.140625l-0.078125 -0.09375q-0.03125 -0.140625 -0.09375 -0.28125q-0.0625 -0.140625 -0.265625 -0.34375q-0.4375 -0.34375 -0.984375 -0.515625q-0.53125 -0.171875 -1.03125 -0.171875q-0.75 0 -1.296875 0.265625q-0.53125 0.25 -0.53125 0.796875q0 0.28125 0.1875 0.546875q0.203125 0.265625 0.71875 0.546875q0.53125 0.265625 1.5 0.546875q1.0625 0.328125 1.703125 0.671875q0.640625 0.34375 0.921875 0.796875q0.296875 0.453125 0.296875 1.0625q0 0.71875 -0.390625 1.328125q-0.375 0.609375 -1.15625 0.984375q-0.78125 0.359375 -1.96875 0.359375l0 0zm17.84375 -0.1875l0 -10.46875l-3.296875 0l0 -1.171875l8.0625 0l0 1.171875l-3.4375 0l0 10.46875l-1.328125 0zm10.125 0.15625q-1.171875 0 -2.0625 -0.5625q-0.875 -0.578125 -1.375 -1.578125q-0.5 -1.0 -0.5 -2.28125q0 -1.3125 0.5 -2.3125q0.5 -1.0 1.375 -1.5625q0.890625 -0.578125 2.0625 -0.578125q1.15625 0 2.03125 0.578125q0.890625 0.5625 1.390625 1.5625q0.5 1.0 0.5 2.3125q0 1.28125 -0.5 2.28125q-0.5 1.0 -1.390625 1.578125q-0.875 0.5625 -2.03125 0.5625zm0 -1.125q0.734375 0 1.296875 -0.421875q0.5625 -0.4375 0.890625 -1.1875q0.328125 -0.75 0.328125 -1.71875q0 -0.96875 -0.328125 -1.703125q-0.328125 -0.75 -0.890625 -1.171875q-0.5625 -0.421875 -1.296875 -0.421875q-0.734375 0 -1.3125 0.421875q-0.5625 0.421875 -0.890625 1.171875q-0.328125 0.734375 -0.328125 1.703125q0 0.96875 0.328125 1.71875q0.328125 0.75 0.890625 1.1875q0.578125 0.421875 1.3125 0.421875zm10.234375 1.09375q-0.828125 0 -1.34375 -0.265625q-0.515625 -0.28125 -0.796875 -0.875q-0.28125 -0.59375 -0.375 -1.484375q-0.078125 -0.890625 -0.046875 -2.125l0.234375 -6.078125l1.390625 -0.171875l0.1875 -0.015625l0.015625 0.125q-0.09375 0.125 -0.15625 0.265625q-0.0625 0.125 -0.09375 0.4375l-0.171875 2.109375l0.0625 0.34375l-0.140625 3.078125q-0.046875 1.421875 0.078125 2.203125q0.125 0.765625 0.453125 1.0625q0.34375 0.28125 0.90625 0.28125q0.625 0 1.09375 -0.234375q0.46875 -0.25 1.0 -0.625l0.40625 1.0625q-0.625 0.46875 -1.296875 0.6875q-0.671875 0.21875 -1.40625 0.21875l0 0zm-4.265625 -8.65625l6.125 0l0 1.109375l-6.125 0l0 -1.109375zm11.953125 8.734375q-1.453125 0 -2.234375 -0.65625q-0.78125 -0.671875 -0.78125 -1.6875q0 -0.6875 0.328125 -1.234375q0.328125 -0.5625 0.921875 -0.9375q0.59375 -0.390625 1.375 -0.59375q0.78125 -0.203125 1.65625 -0.203125q0.3125 0 0.640625 0.015625q0.328125 0 0.6875 0.03125q0.375 0.03125 0.765625 0.078125l0.03125 1.03125q-0.328125 -0.0625 -0.671875 -0.078125q-0.34375 -0.03125 -0.6875 -0.046875q-0.328125 -0.03125 -0.65625 -0.03125q-0.671875 0 -1.234375 0.125q-0.546875 0.109375 -0.96875 0.328125q-0.40625 0.21875 -0.640625 0.578125q-0.21875 0.359375 -0.21875 0.859375q0 0.390625 0.140625 0.671875q0.140625 0.265625 0.375 0.421875q0.25 0.15625 0.578125 0.234375q0.328125 0.0625 0.71875 0.0625q0.734375 0 1.296875 -0.21875q0.578125 -0.234375 0.96875 -0.6875q0.40625 -0.453125 0.609375 -1.09375q0.203125 -0.65625 0.203125 -1.5q0 -1.265625 -0.296875 -1.96875q-0.296875 -0.71875 -0.890625 -1.015625q-0.578125 -0.296875 -1.5 -0.296875q-0.609375 0 -1.203125 0.234375q-0.59375 0.234375 -1.078125 0.71875l-0.65625 -0.859375q0.59375 -0.59375 1.375 -0.890625q0.78125 -0.3125 1.65625 -0.3125q0.84375 0 1.53125 0.21875q0.6875 0.203125 1.1875 0.6875q0.5 0.46875 0.765625 1.265625q0.265625 0.796875 0.265625 2.015625l0 4.53125l-1.453125 0l0 -1.3125q-0.234375 0.46875 -0.59375 0.765625q-0.34375 0.296875 -0.734375 0.46875q-0.390625 0.15625 -0.796875 0.21875q-0.40625 0.0625 -0.78125 0.0625zm6.859375 -0.203125l0 -1.078125l2.53125 0l0 -10.25l-2.421875 0l0 -1.078125l3.78125 0l0 11.328125l2.5 0l0 1.078125l-6.390625 0zm12.296875 -5.75q-0.421875 0 -0.765625 -0.3125q-0.328125 -0.3125 -0.328125 -0.75q0 -0.4375 0.328125 -0.75q0.34375 -0.328125 0.765625 -0.328125q0.4375 0 0.78125 0.328125q0.34375 0.3125 0.34375 0.75q0 0.4375 -0.34375 0.75q-0.328125 0.3125 -0.78125 0.3125zm0 5.953125q-0.46875 0 -0.78125 -0.296875q-0.3125 -0.3125 -0.3125 -0.765625q0 -0.453125 0.328125 -0.765625q0.34375 -0.3125 0.765625 -0.3125q0.4375 0 0.78125 0.3125q0.34375 0.3125 0.34375 0.765625q0 0.4375 -0.328125 0.75q-0.328125 0.3125 -0.796875 0.3125z" fill-rule="nonzero"/><path fill="#000000" fill-opacity="0.0" d="m70.04462 261.81104l401.25986 -0.78741455" fill-rule="evenodd"/><path stroke="#595959" stroke-width="2.0" stroke-linejoin="round" stroke-linecap="butt" d="m70.04462 261.81104l401.25986 -0.78741455" fill-rule="evenodd"/><path fill="#000000" fill-opacity="0.0" d="m74.031494 184.87665l171.08661 0l0 57.19684l-171.08661 0z" fill-rule="evenodd"/><path fill="#000000" d="m83.968994 200.17165l1.265625 0l4.890625 8.625l0 -8.625l1.234375 0l0.171875 0l0 0.125q-0.109375 0.125 -0.140625 0.25q-0.015625 0.125 -0.015625 0.453125l0 10.796875l-1.03125 0l-5.125 -9.140625l0 9.140625l-1.25 0l0 -11.625zm12.515625 11.828125q-0.5 0 -0.953125 -0.15625q-0.453125 -0.140625 -0.8125 -0.4375q-0.359375 -0.3125 -0.625 -0.78125q-0.265625 -0.46875 -0.40625 -1.125q-0.140625 -0.65625 -0.140625 -1.46875l0.03125 -4.765625l1.296875 0l0 4.765625q0 0.796875 0.140625 1.359375q0.15625 0.5625 0.421875 0.90625q0.28125 0.328125 0.625 0.484375q0.359375 0.140625 0.75 0.140625q0.453125 0 0.859375 -0.171875q0.421875 -0.1875 0.734375 -0.53125q0.328125 -0.359375 0.515625 -0.921875q0.1875 -0.5625 0.1875 -1.328125l0 -4.703125l1.3125 0l0 7.203125q0 0.34375 0.015625 0.671875q0.03125 0.328125 0.171875 0.65625l-1.296875 0q-0.09375 -0.21875 -0.125 -0.4375q-0.03125 -0.21875 -0.046875 -0.4375q-0.015625 -0.21875 -0.015625 -0.4375q-0.203125 0.359375 -0.484375 0.640625q-0.28125 0.28125 -0.625 0.484375q-0.34375 0.1875 -0.734375 0.28125q-0.375 0.109375 -0.796875 0.109375zm5.90625 -0.203125l0 -8.53125l1.234375 0l0 0.84375q0.203125 -0.3125 0.46875 -0.546875q0.28125 -0.234375 0.609375 -0.359375q0.328125 -0.140625 0.65625 -0.140625q0.375 0 0.6875 0.171875q0.328125 0.15625 0.53125 0.4375q0.21875 0.265625 0.296875 0.640625q0.171875 -0.375 0.453125 -0.640625q0.296875 -0.28125 0.671875 -0.4375q0.390625 -0.171875 0.796875 -0.171875q0.421875 0 0.734375 0.171875q0.328125 0.171875 0.53125 0.46875q0.203125 0.28125 0.296875 0.6875q0.09375 0.390625 0.078125 0.859375l0 6.546875l-1.234375 0l0 -6.046875q0 -0.78125 -0.109375 -1.125q-0.09375 -0.359375 -0.28125 -0.46875q-0.1875 -0.109375 -0.40625 -0.109375q-0.359375 0 -0.671875 0.328125q-0.296875 0.328125 -0.5 0.8125q-0.1875 0.484375 -0.1875 0.96875l0 5.640625l-1.25 0l0 -5.9375q0 -1.0625 -0.203125 -1.40625q-0.1875 -0.359375 -0.734375 -0.359375q-0.203125 0 -0.421875 0.140625q-0.21875 0.140625 -0.40625 0.390625q-0.171875 0.25 -0.296875 0.625q-0.109375 0.375 -0.109375 0.859375l0 5.6875l-1.234375 0zm13.59375 0.203125q-0.53125 0 -1.0 -0.15625q-0.46875 -0.15625 -0.84375 -0.453125q-0.375 -0.296875 -0.6875 -0.71875l-0.453125 1.125l-0.859375 0l0 -12.40625l1.34375 0l0.1875 0l0 0.125q-0.125 0.125 -0.15625 0.25q-0.015625 0.125 -0.015625 0.453125l0 4.359375q0.203125 -0.34375 0.484375 -0.609375q0.28125 -0.28125 0.609375 -0.484375q0.34375 -0.21875 0.71875 -0.3125q0.375 -0.109375 0.71875 -0.109375q0.78125 0 1.421875 0.28125q0.65625 0.265625 1.109375 0.8125q0.46875 0.546875 0.71875 1.375q0.265625 0.8125 0.265625 1.921875q0 1.140625 -0.3125 2.0q-0.296875 0.84375 -0.8125 1.421875q-0.5 0.5625 -1.140625 0.84375q-0.625 0.28125 -1.296875 0.28125l0 0zm-0.171875 -1.1875q0.453125 0 0.859375 -0.171875q0.421875 -0.171875 0.75 -0.546875q0.34375 -0.390625 0.53125 -1.015625q0.203125 -0.640625 0.203125 -1.546875q0 -0.84375 -0.171875 -1.46875q-0.15625 -0.625 -0.46875 -1.03125q-0.3125 -0.421875 -0.75 -0.609375q-0.421875 -0.203125 -0.921875 -0.203125q-0.6875 0 -1.21875 0.421875q-0.53125 0.421875 -0.828125 1.1875q-0.296875 0.75 -0.296875 1.734375q0 0.734375 0.125 1.328125q0.140625 0.59375 0.40625 1.03125q0.265625 0.421875 0.703125 0.65625q0.4375 0.234375 1.078125 0.234375l0 0zm9.609375 1.171875q-0.9375 0 -1.703125 -0.28125q-0.765625 -0.296875 -1.3125 -0.859375q-0.546875 -0.5625 -0.84375 -1.390625q-0.296875 -0.828125 -0.296875 -1.890625q0 -1.078125 0.296875 -1.921875q0.3125 -0.84375 0.84375 -1.40625q0.53125 -0.578125 1.25 -0.875q0.71875 -0.296875 1.515625 -0.296875q0.734375 0 1.359375 0.25q0.640625 0.234375 1.109375 0.734375q0.46875 0.5 0.734375 1.265625q0.265625 0.75 0.265625 1.796875q0 0.15625 -0.015625 0.3125q0 0.15625 -0.015625 0.3125l-6.0625 0q0.03125 0.8125 0.265625 1.421875q0.25 0.609375 0.640625 1.0q0.390625 0.375 0.90625 0.5625q0.515625 0.1875 1.09375 0.1875q0.453125 0 0.84375 -0.09375q0.390625 -0.109375 0.734375 -0.328125q0.34375 -0.21875 0.625 -0.53125l0.75 0.71875q-0.359375 0.4375 -0.8125 0.734375q-0.453125 0.296875 -1.0 0.4375q-0.546875 0.140625 -1.171875 0.140625zm-2.828125 -5.296875l4.6875 0q0 -0.59375 -0.15625 -1.0625q-0.15625 -0.484375 -0.453125 -0.828125q-0.28125 -0.34375 -0.6875 -0.515625q-0.390625 -0.1875 -0.90625 -0.1875q-0.4375 0 -0.84375 0.15625q-0.40625 0.140625 -0.75 0.46875q-0.328125 0.328125 -0.5625 0.8125q-0.234375 0.484375 -0.328125 1.15625zm9.296875 -3.421875l1.40625 0l-0.0625 2.484375l-0.171875 -0.28125q0.109375 -0.578125 0.390625 -1.015625q0.28125 -0.453125 0.671875 -0.75q0.390625 -0.3125 0.859375 -0.46875q0.46875 -0.171875 0.96875 -0.171875q0.671875 0 1.234375 0.234375q0.578125 0.234375 1.03125 0.703125l-0.59375 1.046875l-0.078125 0.171875l-0.125 -0.078125q-0.046875 -0.15625 -0.125 -0.28125q-0.0625 -0.140625 -0.3125 -0.3125q-0.296875 -0.1875 -0.546875 -0.25q-0.25 -0.078125 -0.578125 -0.078125q-0.453125 0 -0.921875 0.1875q-0.46875 0.171875 -0.859375 0.546875q-0.375 0.375 -0.609375 0.953125q-0.21875 0.578125 -0.21875 1.375l0 4.53125l-1.359375 0l0 -8.546875zm21.109375 8.6875q-1.171875 0 -2.0625 -0.5625q-0.875 -0.578125 -1.375 -1.578125q-0.5 -1.0 -0.5 -2.28125q0 -1.3125 0.5 -2.3125q0.5 -1.0 1.375 -1.5625q0.890625 -0.578125 2.0625 -0.578125q1.15625 0 2.03125 0.578125q0.890625 0.5625 1.390625 1.5625q0.5 1.0 0.5 2.3125q0 1.28125 -0.5 2.28125q-0.5 1.0 -1.390625 1.578125q-0.875 0.5625 -2.03125 0.5625zm0 -1.125q0.734375 0 1.296875 -0.421875q0.5625 -0.4375 0.890625 -1.1875q0.328125 -0.75 0.328125 -1.71875q0 -0.96875 -0.328125 -1.703125q-0.328125 -0.75 -0.890625 -1.171875q-0.5625 -0.421875 -1.296875 -0.421875q-0.734375 0 -1.3125 0.421875q-0.5625 0.421875 -0.890625 1.171875q-0.328125 0.734375 -0.328125 1.703125q0 0.96875 0.328125 1.71875q0.328125 0.75 0.890625 1.1875q0.578125 0.421875 1.3125 0.421875zm7.671875 -6.5l-1.84375 0l0 -1.0625l1.84375 0l0 -0.703125q0 -1.140625 0.40625 -1.859375q0.40625 -0.734375 1.109375 -1.078125q0.71875 -0.34375 1.625 -0.34375q0.796875 0 1.5 0.296875q0.703125 0.28125 1.171875 0.875l-0.71875 0.984375l-0.109375 0.15625l-0.109375 -0.078125q-0.015625 -0.140625 -0.078125 -0.296875q-0.046875 -0.15625 -0.25 -0.375q-0.3125 -0.265625 -0.609375 -0.375q-0.296875 -0.109375 -0.765625 -0.109375q-0.53125 0 -0.96875 0.21875q-0.421875 0.21875 -0.671875 0.6875q-0.234375 0.46875 -0.234375 1.296875l0 0.703125l2.796875 0l0 1.0625l-2.796875 0l0 7.46875l-1.296875 0l0 -7.46875zm19.515625 7.46875l0 -10.46875l-3.296875 0l0 -1.171875l8.0625 0l0 1.171875l-3.4375 0l0 10.46875l-1.328125 0zm7.3125 0l0 -1.078125l2.1875 0l0 -6.359375l-2.0625 0l0 -1.09375l3.40625 0l0 7.453125l2.0 0l0 1.078125l-5.53125 0zm2.875 -10.3125q-0.390625 0 -0.671875 -0.28125q-0.28125 -0.28125 -0.28125 -0.671875q0 -0.40625 0.265625 -0.6875q0.28125 -0.28125 0.6875 -0.28125q0.390625 0 0.671875 0.296875q0.296875 0.28125 0.296875 0.671875q0 0.390625 -0.296875 0.671875q-0.28125 0.28125 -0.671875 0.28125zm5.296875 10.3125l0 -8.53125l1.234375 0l0 0.84375q0.203125 -0.3125 0.46875 -0.546875q0.28125 -0.234375 0.609375 -0.359375q0.328125 -0.140625 0.65625 -0.140625q0.375 0 0.6875 0.171875q0.328125 0.15625 0.53125 0.4375q0.21875 0.265625 0.296875 0.640625q0.171875 -0.375 0.453125 -0.640625q0.296875 -0.28125 0.671875 -0.4375q0.390625 -0.171875 0.796875 -0.171875q0.421875 0 0.734375 0.171875q0.328125 0.171875 0.53125 0.46875q0.203125 0.28125 0.296875 0.6875q0.09375 0.390625 0.078125 0.859375l0 6.546875l-1.234375 0l0 -6.046875q0 -0.78125 -0.109375 -1.125q-0.09375 -0.359375 -0.28125 -0.46875q-0.1875 -0.109375 -0.40625 -0.109375q-0.359375 0 -0.671875 0.328125q-0.296875 0.328125 -0.5 0.8125q-0.1875 0.484375 -0.1875 0.96875l0 5.640625l-1.25 0l0 -5.9375q0 -1.0625 -0.203125 -1.40625q-0.1875 -0.359375 -0.734375 -0.359375q-0.203125 0 -0.421875 0.140625q-0.21875 0.140625 -0.40625 0.390625q-0.171875 0.25 -0.296875 0.625q-0.109375 0.375 -0.109375 0.859375l0 5.6875l-1.234375 0zm13.703125 0.1875q-0.9375 0 -1.703125 -0.28125q-0.765625 -0.296875 -1.3125 -0.859375q-0.546875 -0.5625 -0.84375 -1.390625q-0.296875 -0.828125 -0.296875 -1.890625q0 -1.078125 0.296875 -1.921875q0.3125 -0.84375 0.84375 -1.40625q0.53125 -0.578125 1.25 -0.875q0.71875 -0.296875 1.515625 -0.296875q0.734375 0 1.359375 0.25q0.640625 0.234375 1.109375 0.734375q0.46875 0.5 0.734375 1.265625q0.265625 0.75 0.265625 1.796875q0 0.15625 -0.015625 0.3125q0 0.15625 -0.015625 0.3125l-6.0625 0q0.03125 0.8125 0.265625 1.421875q0.25 0.609375 0.640625 1.0q0.390625 0.375 0.90625 0.5625q0.515625 0.1875 1.09375 0.1875q0.453125 0 0.84375 -0.09375q0.390625 -0.109375 0.734375 -0.328125q0.34375 -0.21875 0.625 -0.53125l0.75 0.71875q-0.359375 0.4375 -0.8125 0.734375q-0.453125 0.296875 -1.0 0.4375q-0.546875 0.140625 -1.171875 0.140625zm-2.828125 -5.296875l4.6875 0q0 -0.59375 -0.15625 -1.0625q-0.15625 -0.484375 -0.453125 -0.828125q-0.28125 -0.34375 -0.6875 -0.515625q-0.390625 -0.1875 -0.90625 -0.1875q-0.4375 0 -0.84375 0.15625q-0.40625 0.140625 -0.75 0.46875q-0.328125 0.328125 -0.5625 0.8125q-0.234375 0.484375 -0.328125 1.15625zm11.765625 5.296875q-0.71875 0 -1.359375 -0.15625q-0.640625 -0.140625 -1.21875 -0.4375q-0.5625 -0.296875 -1.046875 -0.75l0.75 -1.265625l0.109375 -0.171875l0.109375 0.078125q0.046875 0.140625 0.09375 0.3125q0.046875 0.15625 0.25 0.375q0.390625 0.390625 0.9375 0.640625q0.546875 0.25 1.40625 0.25q0.6875 0 1.15625 -0.15625q0.484375 -0.171875 0.75 -0.484375q0.265625 -0.3125 0.265625 -0.71875q0 -0.28125 -0.125 -0.484375q-0.109375 -0.21875 -0.359375 -0.40625q-0.25 -0.1875 -0.671875 -0.375q-0.40625 -0.1875 -1.0 -0.375q-0.96875 -0.28125 -1.703125 -0.65625q-0.71875 -0.375 -1.109375 -0.859375q-0.390625 -0.5 -0.390625 -1.125q0 -0.65625 0.34375 -1.125q0.359375 -0.484375 1.0625 -0.75q0.703125 -0.28125 1.734375 -0.28125q0.59375 0 1.078125 0.09375q0.484375 0.078125 0.890625 0.25q0.40625 0.15625 0.75 0.421875q0.359375 0.25 0.671875 0.578125l-0.765625 0.9375l-0.140625 0.140625l-0.078125 -0.09375q-0.03125 -0.140625 -0.09375 -0.28125q-0.0625 -0.140625 -0.265625 -0.34375q-0.4375 -0.34375 -0.984375 -0.515625q-0.53125 -0.171875 -1.03125 -0.171875q-0.75 0 -1.296875 0.265625q-0.53125 0.25 -0.53125 0.796875q0 0.28125 0.1875 0.546875q0.203125 0.265625 0.71875 0.546875q0.53125 0.265625 1.5 0.546875q1.0625 0.328125 1.703125 0.671875q0.640625 0.34375 0.921875 0.796875q0.296875 0.453125 0.296875 1.0625q0 0.71875 -0.390625 1.328125q-0.375 0.609375 -1.15625 0.984375q-0.78125 0.359375 -1.96875 0.359375l0 0z" fill-rule="nonzero"/><path fill="#000000" d="m83.625244 233.79665l0 -11.625l1.84375 0l2.265625 5.34375l2.25 -5.359375l1.859375 0l0 11.640625l-1.828125 0l0 -8.109375l-1.828125 4.265625l-1.03125 0l-1.71875 -4.25l0 8.09375l-1.8125 0zm13.375 0.1875q-1.15625 0 -2.09375 -0.5625q-0.9375 -0.578125 -1.484375 -1.59375q-0.546875 -1.03125 -0.546875 -2.375q0 -1.296875 0.546875 -2.3125q0.546875 -1.03125 1.484375 -1.625q0.9375 -0.59375 2.09375 -0.59375q1.1875 0 2.125 0.59375q0.9375 0.59375 1.484375 1.625q0.5625 1.015625 0.5625 2.3125q0 1.34375 -0.5625 2.375q-0.546875 1.015625 -1.484375 1.59375q-0.9375 0.5625 -2.125 0.5625zm0 -1.6875q0.625 0 1.0625 -0.359375q0.453125 -0.359375 0.71875 -1.0q0.28125 -0.640625 0.28125 -1.484375q0 -0.875 -0.28125 -1.515625q-0.265625 -0.640625 -0.71875 -0.984375q-0.4375 -0.34375 -1.0625 -0.34375q-0.5625 0 -1.015625 0.34375q-0.453125 0.34375 -0.734375 0.984375q-0.265625 0.640625 -0.265625 1.515625q0 0.84375 0.265625 1.484375q0.265625 0.640625 0.71875 1.0q0.453125 0.359375 1.03125 0.359375zm5.71875 1.5l0 -8.671875l2.109375 0l0 1.1875q0.3125 -0.40625 0.6875 -0.71875q0.375 -0.328125 0.828125 -0.5q0.453125 -0.171875 0.984375 -0.171875q0.765625 0 1.390625 0.359375q0.640625 0.359375 1.03125 1.171875q0.390625 0.796875 0.390625 2.09375l0 5.25l-2.109375 0l0 -5.203125q0 -0.734375 -0.15625 -1.171875q-0.140625 -0.453125 -0.4375 -0.65625q-0.28125 -0.21875 -0.671875 -0.21875q-0.359375 0 -0.703125 0.140625q-0.34375 0.125 -0.625 0.40625q-0.28125 0.28125 -0.453125 0.671875q-0.15625 0.375 -0.15625 0.859375l0 5.171875l-2.109375 0zm13.875 0.1875q-0.75 0 -1.296875 -0.234375q-0.546875 -0.25 -0.921875 -0.78125q-0.359375 -0.546875 -0.515625 -1.4375q-0.15625 -0.90625 -0.09375 -2.234375l0.234375 -6.234375l2.1875 -0.265625l0.15625 -0.03125l0.03125 0.171875q-0.078125 0.125 -0.15625 0.265625q-0.078125 0.125 -0.09375 0.4375l-0.203125 2.578125l0.09375 0.140625l-0.15625 2.90625q-0.046875 1.203125 0.09375 1.875q0.140625 0.65625 0.421875 0.90625q0.296875 0.234375 0.703125 0.234375q0.59375 0 1.0625 -0.234375q0.484375 -0.25 0.890625 -0.5625l0.453125 1.53125q-0.640625 0.46875 -1.359375 0.71875q-0.703125 0.25 -1.53125 0.25l0 0zm-4.484375 -8.859375l6.6875 0l-0.015625 1.65625l-6.703125 0l0.03125 -1.65625zm13.296875 8.875q-0.9375 0 -1.734375 -0.296875q-0.796875 -0.296875 -1.390625 -0.859375q-0.578125 -0.578125 -0.890625 -1.40625q-0.3125 -0.84375 -0.3125 -1.90625q0 -1.09375 0.3125 -1.953125q0.3125 -0.859375 0.859375 -1.453125q0.5625 -0.59375 1.296875 -0.890625q0.75 -0.3125 1.609375 -0.3125q0.765625 0 1.4375 0.265625q0.671875 0.25 1.1875 0.78125q0.515625 0.53125 0.8125 1.328125q0.296875 0.796875 0.296875 1.828125q0 0.1875 -0.015625 0.453125q0 0.265625 -0.03125 0.453125l-5.734375 0q0.03125 0.609375 0.234375 1.046875q0.203125 0.4375 0.53125 0.71875q0.34375 0.28125 0.75 0.421875q0.421875 0.140625 0.875 0.140625q0.390625 0 0.75 -0.0625q0.359375 -0.078125 0.6875 -0.265625q0.328125 -0.1875 0.625 -0.484375l1.078125 1.03125q-0.40625 0.484375 -0.921875 0.8125q-0.515625 0.328125 -1.109375 0.46875q-0.578125 0.140625 -1.203125 0.140625zm-2.265625 -5.5625l3.703125 0q0 -0.4375 -0.125 -0.796875q-0.125 -0.359375 -0.359375 -0.59375q-0.21875 -0.25 -0.546875 -0.359375q-0.3125 -0.125 -0.75 -0.125q-0.359375 0 -0.6875 0.109375q-0.3125 0.09375 -0.578125 0.34375q-0.265625 0.234375 -0.4375 0.59375q-0.15625 0.34375 -0.21875 0.828125zm10.34375 5.359375l-3.265625 -8.671875l2.203125 0l2.21875 6.203125l-0.296875 0l1.171875 -2.828125q0.34375 -0.890625 0.5625 -1.75q0.21875 -0.859375 0.265625 -1.625l1.984375 0q-0.09375 0.8125 -0.40625 1.734375q-0.296875 0.90625 -0.6875 1.875l-2.09375 5.0625l-1.65625 0zm10.578125 0.203125q-0.9375 0 -1.734375 -0.296875q-0.796875 -0.296875 -1.390625 -0.859375q-0.578125 -0.578125 -0.890625 -1.40625q-0.3125 -0.84375 -0.3125 -1.90625q0 -1.09375 0.3125 -1.953125q0.3125 -0.859375 0.859375 -1.453125q0.5625 -0.59375 1.296875 -0.890625q0.75 -0.3125 1.609375 -0.3125q0.765625 0 1.4375 0.265625q0.671875 0.25 1.1875 0.78125q0.515625 0.53125 0.8125 1.328125q0.296875 0.796875 0.296875 1.828125q0 0.1875 -0.015625 0.453125q0 0.265625 -0.03125 0.453125l-5.734375 0q0.03125 0.609375 0.234375 1.046875q0.203125 0.4375 0.53125 0.71875q0.34375 0.28125 0.75 0.421875q0.421875 0.140625 0.875 0.140625q0.390625 0 0.75 -0.0625q0.359375 -0.078125 0.6875 -0.265625q0.328125 -0.1875 0.625 -0.484375l1.078125 1.03125q-0.40625 0.484375 -0.921875 0.8125q-0.515625 0.328125 -1.109375 0.46875q-0.578125 0.140625 -1.203125 0.140625zm-2.265625 -5.5625l3.703125 0q0 -0.4375 -0.125 -0.796875q-0.125 -0.359375 -0.359375 -0.59375q-0.21875 -0.25 -0.546875 -0.359375q-0.3125 -0.125 -0.75 -0.125q-0.359375 0 -0.6875 0.109375q-0.3125 0.09375 -0.578125 0.34375q-0.265625 0.234375 -0.4375 0.59375q-0.15625 0.34375 -0.21875 0.828125zm8.1875 -3.3125l2.1875 0l-0.015625 2.421875l-0.25 -0.15625q0.078125 -0.578125 0.328125 -1.015625q0.25 -0.453125 0.625 -0.78125q0.390625 -0.34375 0.84375 -0.5q0.46875 -0.171875 0.953125 -0.171875q0.71875 0 1.3125 0.234375q0.59375 0.234375 1.09375 0.75l-0.90625 1.765625l-0.046875 0.15625l-0.171875 -0.078125q-0.046875 -0.140625 -0.109375 -0.296875q-0.0625 -0.171875 -0.28125 -0.375q-0.265625 -0.203125 -0.5625 -0.3125q-0.28125 -0.109375 -0.609375 -0.109375q-0.453125 0 -0.859375 0.15625q-0.40625 0.140625 -0.71875 0.453125q-0.3125 0.3125 -0.484375 0.8125q-0.171875 0.5 -0.171875 1.171875l0 4.546875l-2.15625 0l0 -8.671875zm11.890625 8.875q-0.734375 0 -1.375 -0.28125q-0.640625 -0.28125 -1.15625 -0.859375q-0.5 -0.578125 -0.796875 -1.4375q-0.28125 -0.859375 -0.28125 -2.015625q0 -1.109375 0.28125 -1.953125q0.28125 -0.859375 0.78125 -1.421875q0.5 -0.578125 1.140625 -0.859375q0.65625 -0.28125 1.421875 -0.28125q0.4375 0 0.828125 0.125q0.40625 0.109375 0.734375 0.328125q0.328125 0.203125 0.53125 0.578125l0 -4.640625l2.0625 0l0.1875 0l0 0.171875q-0.109375 0.109375 -0.140625 0.234375q-0.03125 0.125 -0.03125 0.453125l-0.015625 10.5q0 0.296875 0.03125 0.578125q0.046875 0.28125 0.171875 0.578125l-2.0625 0q-0.09375 -0.203125 -0.140625 -0.328125q-0.03125 -0.140625 -0.046875 -0.28125q0 -0.140625 0 -0.34375q-0.21875 0.390625 -0.5625 0.65625q-0.328125 0.265625 -0.71875 0.375q-0.390625 0.125 -0.84375 0.125l0 0zm0.359375 -1.703125q0.421875 0 0.75 -0.171875q0.328125 -0.171875 0.53125 -0.53125q0.21875 -0.359375 0.3125 -0.90625q0.109375 -0.546875 0.109375 -1.25q0 -0.96875 -0.1875 -1.609375q-0.1875 -0.65625 -0.578125 -0.96875q-0.390625 -0.3125 -1.0 -0.3125q-0.4375 0 -0.796875 0.203125q-0.34375 0.1875 -0.578125 0.5625q-0.21875 0.359375 -0.34375 0.890625q-0.109375 0.515625 -0.109375 1.171875q0 0.921875 0.25 1.578125q0.25 0.640625 0.671875 1.0q0.4375 0.34375 0.96875 0.34375l0 0zm6.3125 1.5l0 -1.65625l2.125 0l0 -5.359375l-2.015625 0l0 -1.65625l4.15625 0l0 7.015625l1.9375 0l0 1.65625l-6.203125 0zm3.171875 -10.109375q-0.53125 0 -0.921875 -0.375q-0.390625 -0.375 -0.390625 -0.890625q0 -0.5625 0.359375 -0.921875q0.375 -0.359375 0.953125 -0.359375q0.53125 0 0.921875 0.375q0.40625 0.375 0.40625 0.90625q0 0.515625 -0.40625 0.890625q-0.390625 0.375 -0.921875 0.375z" fill-rule="nonzero"/><path fill="#000000" d="m190.32837 233.99977q-1.875 0 -2.8125 -1.109375q-0.9375 -1.109375 -0.9375 -3.109375l0 -7.609375l1.265625 0l0.1875 0l0 0.125q-0.109375 0.125 -0.140625 0.25q-0.03125 0.125 -0.03125 0.453125l0 6.796875q0 1.421875 0.546875 2.265625q0.5625 0.84375 1.9375 0.84375q1.390625 0 1.953125 -0.84375q0.5625 -0.84375 0.5625 -2.3125l0 -7.578125l1.25 0l0 7.5625q0 1.46875 -0.46875 2.421875q-0.46875 0.9375 -1.3125 1.390625q-0.84375 0.453125 -2.0 0.453125l0 0zm9.328125 -0.015625q-0.71875 0 -1.359375 -0.15625q-0.640625 -0.140625 -1.21875 -0.4375q-0.5625 -0.296875 -1.046875 -0.75l0.75 -1.265625l0.109375 -0.171875l0.109375 0.078125q0.046875 0.140625 0.09375 0.3125q0.046875 0.15625 0.25 0.375q0.390625 0.390625 0.9375 0.640625q0.546875 0.25 1.40625 0.25q0.6875 0 1.15625 -0.15625q0.484375 -0.171875 0.75 -0.484375q0.265625 -0.3125 0.265625 -0.71875q0 -0.28125 -0.125 -0.484375q-0.109375 -0.21875 -0.359375 -0.40625q-0.25 -0.1875 -0.671875 -0.375q-0.40625 -0.1875 -1.0 -0.375q-0.96875 -0.28125 -1.703125 -0.65625q-0.71875 -0.375 -1.109375 -0.859375q-0.390625 -0.5 -0.390625 -1.125q0 -0.65625 0.34375 -1.125q0.359375 -0.484375 1.0625 -0.75q0.703125 -0.28125 1.734375 -0.28125q0.59375 0 1.078125 0.09375q0.484375 0.078125 0.890625 0.25q0.40625 0.15625 0.75 0.421875q0.359375 0.25 0.671875 0.578125l-0.765625 0.9375l-0.140625 0.140625l-0.078125 -0.09375q-0.03125 -0.140625 -0.09375 -0.28125q-0.0625 -0.140625 -0.265625 -0.34375q-0.4375 -0.34375 -0.984375 -0.515625q-0.53125 -0.171875 -1.03125 -0.171875q-0.75 0 -1.296875 0.265625q-0.53125 0.25 -0.53125 0.796875q0 0.28125 0.1875 0.546875q0.203125 0.265625 0.71875 0.546875q0.53125 0.265625 1.5 0.546875q1.0625 0.328125 1.703125 0.671875q0.640625 0.34375 0.921875 0.796875q0.296875 0.453125 0.296875 1.0625q0 0.71875 -0.390625 1.328125q-0.375 0.609375 -1.15625 0.984375q-0.78125 0.359375 -1.96875 0.359375l0 0zm9.71875 0q-0.9375 0 -1.703125 -0.28125q-0.765625 -0.296875 -1.3125 -0.859375q-0.546875 -0.5625 -0.84375 -1.390625q-0.296875 -0.828125 -0.296875 -1.890625q0 -1.078125 0.296875 -1.921875q0.3125 -0.84375 0.84375 -1.40625q0.53125 -0.578125 1.25 -0.875q0.71875 -0.296875 1.515625 -0.296875q0.734375 0 1.359375 0.25q0.640625 0.234375 1.109375 0.734375q0.46875 0.5 0.734375 1.265625q0.265625 0.75 0.265625 1.796875q0 0.15625 -0.015625 0.3125q0 0.15625 -0.015625 0.3125l-6.0625 0q0.03125 0.8125 0.265625 1.421875q0.25 0.609375 0.640625 1.0q0.390625 0.375 0.90625 0.5625q0.515625 0.1875 1.09375 0.1875q0.453125 0 0.84375 -0.09375q0.390625 -0.109375 0.734375 -0.328125q0.34375 -0.21875 0.625 -0.53125l0.75 0.71875q-0.359375 0.4375 -0.8125 0.734375q-0.453125 0.296875 -1.0 0.4375q-0.546875 0.140625 -1.171875 0.140625zm-2.828125 -5.296875l4.6875 0q0 -0.59375 -0.15625 -1.0625q-0.15625 -0.484375 -0.453125 -0.828125q-0.28125 -0.34375 -0.6875 -0.515625q-0.390625 -0.1875 -0.90625 -0.1875q-0.4375 0 -0.84375 0.15625q-0.40625 0.140625 -0.75 0.46875q-0.328125 0.328125 -0.5625 0.8125q-0.234375 0.484375 -0.328125 1.15625zm11.765625 5.296875q-0.71875 0 -1.359375 -0.15625q-0.640625 -0.140625 -1.21875 -0.4375q-0.5625 -0.296875 -1.046875 -0.75l0.75 -1.265625l0.109375 -0.171875l0.109375 0.078125q0.046875 0.140625 0.09375 0.3125q0.046875 0.15625 0.25 0.375q0.390625 0.390625 0.9375 0.640625q0.546875 0.25 1.40625 0.25q0.6875 0 1.15625 -0.15625q0.484375 -0.171875 0.75 -0.484375q0.265625 -0.3125 0.265625 -0.71875q0 -0.28125 -0.125 -0.484375q-0.109375 -0.21875 -0.359375 -0.40625q-0.25 -0.1875 -0.671875 -0.375q-0.40625 -0.1875 -1.0 -0.375q-0.96875 -0.28125 -1.703125 -0.65625q-0.71875 -0.375 -1.109375 -0.859375q-0.390625 -0.5 -0.390625 -1.125q0 -0.65625 0.34375 -1.125q0.359375 -0.484375 1.0625 -0.75q0.703125 -0.28125 1.734375 -0.28125q0.59375 0 1.078125 0.09375q0.484375 0.078125 0.890625 0.25q0.40625 0.15625 0.75 0.421875q0.359375 0.25 0.671875 0.578125l-0.765625 0.9375l-0.140625 0.140625l-0.078125 -0.09375q-0.03125 -0.140625 -0.09375 -0.28125q-0.0625 -0.140625 -0.265625 -0.34375q-0.4375 -0.34375 -0.984375 -0.515625q-0.53125 -0.171875 -1.03125 -0.171875q-0.75 0 -1.296875 0.265625q-0.53125 0.25 -0.53125 0.796875q0 0.28125 0.1875 0.546875q0.203125 0.265625 0.71875 0.546875q0.53125 0.265625 1.5 0.546875q1.0625 0.328125 1.703125 0.671875q0.640625 0.34375 0.921875 0.796875q0.296875 0.453125 0.296875 1.0625q0 0.71875 -0.390625 1.328125q-0.375 0.609375 -1.15625 0.984375q-0.78125 0.359375 -1.96875 0.359375l0 0zm9.078125 -5.9375q-0.421875 0 -0.765625 -0.3125q-0.328125 -0.3125 -0.328125 -0.75q0 -0.4375 0.328125 -0.75q0.34375 -0.328125 0.765625 -0.328125q0.4375 0 0.78125 0.328125q0.34375 0.3125 0.34375 0.75q0 0.4375 -0.34375 0.75q-0.328125 0.3125 -0.78125 0.3125zm0 5.953125q-0.46875 0 -0.78125 -0.296875q-0.3125 -0.3125 -0.3125 -0.765625q0 -0.453125 0.328125 -0.765625q0.34375 -0.3125 0.765625 -0.3125q0.4375 0 0.78125 0.3125q0.34375 0.3125 0.34375 0.765625q0 0.4375 -0.328125 0.75q-0.328125 0.3125 -0.796875 0.3125z" fill-rule="nonzero"/><path shape-rendering="crispEdges" fill="#d9ead3" d="m257.04724 190.33858l75.968506 0l0 57.196854l-75.968506 0l0 -57.196854z" fill-rule="nonzero"/><path shape-rendering="crispEdges" fill="#d9ead3" d="m333.01575 190.33858l75.968506 0l0 57.196854l-75.968506 0l0 -57.196854z" fill-rule="nonzero"/><path stroke="#9e9e9e" stroke-width="2.0" stroke-linecap="butt" d="m257.04724 189.33858l0 59.196854" fill-rule="nonzero"/><path stroke="#9e9e9e" stroke-width="2.0" stroke-linecap="butt" d="m333.01575 189.33858l0 59.196854" fill-rule="nonzero"/><path stroke="#9e9e9e" stroke-width="2.0" stroke-linecap="butt" d="m408.98425 189.33858l0 59.196854" fill-rule="nonzero"/><path stroke="#9e9e9e" stroke-width="2.0" stroke-linecap="butt" d="m256.04724 190.33858l153.93701 0" fill-rule="nonzero"/><path stroke="#9e9e9e" stroke-width="2.0" stroke-linecap="butt" d="m256.04724 247.53543l153.93701 0" fill-rule="nonzero"/><path fill="#000000" d="m306.25806 208.87108l0 0.578125q-1.15625 0.1875 -2.0625 1.234375q-0.65625 0.78125 -1.953125 3.671875l-7.296875 16.1875l-0.515625 0l-7.265625 -16.84375q-1.3125 -3.046875 -1.765625 -3.578125q-0.4375 -0.53125 -1.671875 -0.671875l0 -0.578125l10.15625 0l0 0.578125l-0.34375 0q-1.375 0 -1.875 0.34375q-0.359375 0.234375 -0.359375 0.6875q0 0.28125 0.125 0.671875q0.125 0.375 0.84375 2.046875l4.515625 10.546875l4.1875 -9.390625q0.75 -1.703125 0.921875 -2.28125q0.171875 -0.578125 0.171875 -0.984375q0 -0.46875 -0.25 -0.828125q-0.25 -0.359375 -0.734375 -0.546875q-0.671875 -0.265625 -1.78125 -0.265625l0 -0.578125l6.953125 0z" fill-rule="nonzero"/><path fill="#000000" d="m376.4922 229.48045l0 0.578125l-11.078125 0l0 -0.578125l0.703125 0q0.921875 0 1.484375 -0.328125q0.40625 -0.21875 0.625 -0.75q0.171875 -0.375 0.171875 -1.96875l0 -13.9375q0 -1.625 -0.171875 -2.03125q-0.171875 -0.40625 -0.703125 -0.703125q-0.515625 -0.3125 -1.40625 -0.3125l-0.703125 0l0 -0.578125l11.078125 0l0 0.578125l-0.703125 0q-0.921875 0 -1.484375 0.328125q-0.40625 0.21875 -0.640625 0.75q-0.171875 0.375 -0.171875 1.96875l0 13.9375q0 1.625 0.171875 2.03125q0.1875 0.40625 0.703125 0.71875q0.53125 0.296875 1.421875 0.296875l0.703125 0z" fill-rule="nonzero"/><path fill="#000000" fill-opacity="0.0" d="m478.16272 226.25984l52.251953 0l0 52.976364l-52.251953 0z" fill-rule="evenodd"/><path fill="#000000" d="m509.69397 258.26672l-20.15625 0l0 -3.5l20.15625 0l0 3.5zm0 9.265625l-20.15625 0l0 -3.5l20.15625 0l0 3.5z" fill-rule="nonzero"/><path fill="#000000" fill-opacity="0.0" d="m558.0446 261.81104l315.87402 0.3149414" fill-rule="evenodd"/><path stroke="#595959" stroke-width="2.0" stroke-linejoin="round" stroke-linecap="butt" d="m558.0446 261.81104l315.87402 0.3149414" fill-rule="evenodd"/><path fill="#000000" fill-opacity="0.0" d="m607.6798 270.56955l233.19684 0l0 57.19687l-233.19684 0z" fill-rule="evenodd"/><path fill="#000000" d="m627.82043 320.95142q-2.65625 0 -4.515625 -1.53125q-1.84375 -1.53125 -2.8125 -4.34375q-0.953125 -2.828125 -0.953125 -6.65625q0 -4.78125 1.171875 -8.0625q1.171875 -3.28125 3.28125 -4.984375q2.109375 -1.71875 4.9375 -1.71875q1.65625 0 3.125 0.609375q1.46875 0.59375 2.71875 1.828125l-1.890625 2.125l-0.296875 0.34375l-0.203125 -0.21875q-0.046875 -0.328125 -0.203125 -0.625q-0.140625 -0.3125 -0.703125 -0.78125q-0.34375 -0.25 -0.734375 -0.375q-0.375 -0.125 -0.796875 -0.1875q-0.421875 -0.078125 -0.9375 -0.078125q-0.6875 0 -1.546875 0.265625q-0.84375 0.25 -1.703125 0.890625q-0.84375 0.640625 -1.59375 1.796875q-0.75 1.140625 -1.203125 2.953125q-0.4375 1.8125 -0.484375 4.375q0.59375 -1.015625 1.484375 -1.71875q0.90625 -0.703125 1.96875 -1.078125q1.078125 -0.390625 2.1875 -0.390625q1.484375 0 2.796875 0.625q1.328125 0.609375 2.328125 1.765625q1.015625 1.140625 1.578125 2.75q0.578125 1.59375 0.578125 3.546875q0 2.65625 -1.03125 4.65625q-1.015625 2.0 -2.71875 3.109375q-1.703125 1.109375 -3.828125 1.109375l0 0zm0.125 -2.640625q0.890625 0 1.71875 -0.40625q0.84375 -0.40625 1.46875 -1.171875q0.640625 -0.765625 1.0 -1.921875q0.375 -1.15625 0.375 -2.6875q0 -1.625 -0.40625 -2.765625q-0.40625 -1.15625 -1.09375 -1.90625q-0.671875 -0.75 -1.515625 -1.109375q-0.828125 -0.359375 -1.640625 -0.359375q-0.765625 0 -1.515625 0.28125q-0.734375 0.28125 -1.421875 0.765625q-0.6875 0.484375 -1.265625 1.125q-0.578125 0.640625 -1.0 1.40625q-0.171875 1.453125 0.109375 3.0q0.28125 1.53125 0.984375 2.828125q0.703125 1.296875 1.765625 2.109375q1.0625 0.8125 2.4375 0.8125l0 0zm21.203064 2.640625q-2.65625 0 -4.515625 -1.53125q-1.84375 -1.53125 -2.8125 -4.34375q-0.953125 -2.828125 -0.953125 -6.65625q0 -4.78125 1.171875 -8.0625q1.171875 -3.28125 3.28125 -4.984375q2.109375 -1.71875 4.9375 -1.71875q1.65625 0 3.125 0.609375q1.46875 0.59375 2.71875 1.828125l-1.890625 2.125l-0.296875 0.34375l-0.203125 -0.21875q-0.046875 -0.328125 -0.203125 -0.625q-0.140625 -0.3125 -0.703125 -0.78125q-0.34375 -0.25 -0.734375 -0.375q-0.375 -0.125 -0.796875 -0.1875q-0.421875 -0.078125 -0.9375 -0.078125q-0.6875 0 -1.546875 0.265625q-0.84375 0.25 -1.703125 0.890625q-0.84375 0.640625 -1.59375 1.796875q-0.75 1.140625 -1.203125 2.953125q-0.4375 1.8125 -0.484375 4.375q0.59375 -1.015625 1.484375 -1.71875q0.90625 -0.703125 1.96875 -1.078125q1.078125 -0.390625 2.1875 -0.390625q1.484375 0 2.796875 0.625q1.328125 0.609375 2.328125 1.765625q1.015625 1.140625 1.578125 2.75q0.578125 1.59375 0.578125 3.546875q0 2.65625 -1.03125 4.65625q-1.015625 2.0 -2.71875 3.109375q-1.703125 1.109375 -3.828125 1.109375l0 0zm0.125 -2.640625q0.890625 0 1.71875 -0.40625q0.84375 -0.40625 1.46875 -1.171875q0.640625 -0.765625 1.0 -1.921875q0.375 -1.15625 0.375 -2.6875q0 -1.625 -0.40625 -2.765625q-0.40625 -1.15625 -1.09375 -1.90625q-0.671875 -0.75 -1.515625 -1.109375q-0.828125 -0.359375 -1.640625 -0.359375q-0.765625 0 -1.515625 0.28125q-0.734375 0.28125 -1.421875 0.765625q-0.6875 0.484375 -1.265625 1.125q-0.578125 0.640625 -1.0 1.40625q-0.171875 1.453125 0.109375 3.0q0.28125 1.53125 0.984375 2.828125q0.703125 1.296875 1.765625 2.109375q1.0625 0.8125 2.4375 0.8125l0 0zm19.875 2.21875l0 -22.90625l-5.375 1.578125l-0.6875 -1.65625l6.953125 -3.640625l2.09375 0l0 26.625l-2.984375 0zm21.749939 0.46875q-2.09375 0 -4.015625 -0.765625q-1.90625 -0.765625 -3.28125 -2.265625l1.96875 -2.34375l0.296875 -0.34375l0.21875 0.21875q0.03125 0.34375 0.15625 0.671875q0.140625 0.3125 0.609375 0.8125q0.71875 0.640625 1.65625 1.046875q0.9375 0.40625 2.265625 0.40625q1.703125 0 2.8125 -0.671875q1.109375 -0.6875 1.65625 -1.90625q0.5625 -1.21875 0.5625 -2.75q0 -1.53125 -0.53125 -2.59375q-0.53125 -1.078125 -1.515625 -1.6875q-0.984375 -0.625 -2.34375 -0.859375q-1.359375 -0.234375 -3.078125 -0.0625l0 -2.390625q2.046875 0 3.34375 -0.421875q1.3125 -0.4375 2.015625 -1.15625q0.703125 -0.71875 0.953125 -1.671875q0.265625 -0.96875 0.265625 -2.0q0 -0.890625 -0.28125 -1.609375q-0.28125 -0.734375 -0.765625 -1.234375q-0.484375 -0.515625 -1.203125 -0.796875q-0.703125 -0.28125 -1.546875 -0.28125q-0.859375 0 -1.6875 0.203125q-0.828125 0.1875 -1.625 0.609375q-0.78125 0.421875 -1.546875 1.15625l-1.796875 -1.796875q1.453125 -1.5 3.171875 -2.109375q1.734375 -0.625 3.4375 -0.625q2.171875 0 3.703125 0.84375q1.546875 0.828125 2.375 2.328125q0.828125 1.484375 0.828125 3.4375q0 1.375 -0.453125 2.59375q-0.4375 1.203125 -1.375 2.109375q-0.9375 0.890625 -2.34375 1.359375q1.484375 0.46875 2.640625 1.390625q1.15625 0.921875 1.796875 2.25q0.640625 1.3125 0.640625 3.140625q0 2.09375 -0.921875 3.875q-0.921875 1.765625 -2.6875 2.828125q-1.765625 1.0625 -4.375 1.0625l0 0zm45.171814 -0.171875q-1.875 0 -3.078125 -0.640625q-1.1875 -0.640625 -1.828125 -1.984375q-0.640625 -1.34375 -0.828125 -3.390625q-0.1875 -2.046875 -0.109375 -4.859375l0.515625 -13.90625l3.203125 -0.390625l0.421875 -0.03125l0.046875 0.296875q-0.21875 0.296875 -0.375 0.59375q-0.140625 0.296875 -0.21875 1.03125l-0.390625 4.8125l0.125 0.765625l-0.296875 7.046875q-0.125 3.234375 0.171875 5.015625q0.296875 1.765625 1.0625 2.421875q0.765625 0.65625 2.046875 0.65625q1.40625 0 2.5 -0.546875q1.09375 -0.5625 2.28125 -1.40625l0.9375 2.421875q-1.453125 1.078125 -2.984375 1.59375q-1.53125 0.5 -3.203125 0.5l0 0zm-9.765625 -19.796875l14.03125 0l0 2.515625l-14.03125 0l0 -2.515625zm22.609375 19.5l0 -2.46875l4.984375 0l0 -14.546875l-4.734375 0l0 -2.484375l7.8125 0l0 17.03125l4.5625 0l0 2.46875l-12.625 0zm6.5625 -23.59375q-0.890625 0 -1.53125 -0.640625q-0.640625 -0.640625 -0.640625 -1.53125q0 -0.9375 0.609375 -1.578125q0.625 -0.640625 1.5625 -0.640625q0.90625 0 1.5625 0.671875q0.65625 0.65625 0.65625 1.546875q0 0.890625 -0.65625 1.53125q-0.65625 0.640625 -1.5625 0.640625zm12.124939 23.59375l0 -19.5l2.8125 0l0 1.921875q0.46875 -0.71875 1.078125 -1.25q0.625 -0.53125 1.375 -0.828125q0.75 -0.3125 1.515625 -0.3125q0.84375 0 1.5625 0.375q0.734375 0.359375 1.21875 1.0q0.5 0.640625 0.671875 1.484375q0.390625 -0.84375 1.046875 -1.484375q0.65625 -0.640625 1.53125 -1.0q0.875 -0.375 1.8125 -0.375q0.984375 0 1.703125 0.390625q0.734375 0.390625 1.203125 1.046875q0.46875 0.65625 0.671875 1.578125q0.21875 0.921875 0.171875 1.984375l0 14.96875l-2.8125 0l0 -13.828125q0 -1.78125 -0.234375 -2.59375q-0.234375 -0.8125 -0.65625 -1.046875q-0.421875 -0.234375 -0.9375 -0.234375q-0.8125 0 -1.515625 0.75q-0.703125 0.75 -1.15625 1.859375q-0.4375 1.109375 -0.4375 2.21875l0 12.875l-2.859375 0l0 -13.5625q0 -2.4375 -0.453125 -3.234375q-0.453125 -0.8125 -1.6875 -0.8125q-0.46875 0 -0.96875 0.3125q-0.484375 0.3125 -0.90625 0.890625q-0.421875 0.578125 -0.6875 1.4375q-0.25 0.84375 -0.25 1.953125l0 13.015625l-2.8125 0zm31.3125 0.421875q-2.140625 0 -3.890625 -0.65625q-1.75 -0.65625 -3.015625 -1.9375q-1.25 -1.28125 -1.9375 -3.171875q-0.671875 -1.90625 -0.671875 -4.34375q0 -2.46875 0.703125 -4.390625q0.703125 -1.921875 1.90625 -3.21875q1.21875 -1.296875 2.859375 -1.984375q1.65625 -0.6875 3.484375 -0.6875q1.671875 0 3.109375 0.5625q1.453125 0.546875 2.515625 1.6875q1.078125 1.125 1.6875 2.875q0.625 1.75 0.625 4.140625q0 0.34375 -0.03125 0.703125q-0.015625 0.359375 -0.0625 0.703125l-13.859375 0q0.09375 1.875 0.640625 3.265625q0.5625 1.375 1.453125 2.25q0.890625 0.875 2.0625 1.3125q1.171875 0.421875 2.5 0.421875q1.03125 0 1.921875 -0.234375q0.890625 -0.234375 1.671875 -0.71875q0.796875 -0.5 1.4375 -1.21875l1.703125 1.65625q-0.8125 0.984375 -1.859375 1.671875q-1.03125 0.671875 -2.28125 0.984375q-1.234375 0.328125 -2.671875 0.328125zm-6.453125 -12.109375l10.71875 0q0 -1.359375 -0.375 -2.453125q-0.359375 -1.09375 -1.015625 -1.875q-0.65625 -0.796875 -1.578125 -1.1875q-0.921875 -0.40625 -2.078125 -0.40625q-1.015625 0 -1.9375 0.34375q-0.90625 0.328125 -1.6875 1.078125q-0.765625 0.75 -1.296875 1.859375q-0.53125 1.109375 -0.75 2.640625zm26.874939 12.109375q-1.625 0 -3.09375 -0.34375q-1.46875 -0.328125 -2.765625 -1.015625q-1.296875 -0.6875 -2.40625 -1.703125l1.703125 -2.90625l0.25 -0.375l0.265625 0.15625q0.078125 0.34375 0.1875 0.71875q0.109375 0.359375 0.578125 0.859375q0.890625 0.90625 2.140625 1.484375q1.265625 0.578125 3.234375 0.578125q1.578125 0 2.65625 -0.390625q1.09375 -0.390625 1.6875 -1.09375q0.59375 -0.703125 0.59375 -1.640625q0 -0.640625 -0.25 -1.125q-0.25 -0.5 -0.828125 -0.921875q-0.578125 -0.421875 -1.515625 -0.84375q-0.9375 -0.4375 -2.3125 -0.859375q-2.21875 -0.640625 -3.875 -1.484375q-1.65625 -0.859375 -2.5625 -1.984375q-0.890625 -1.140625 -0.890625 -2.59375q0 -1.484375 0.8125 -2.5625q0.8125 -1.09375 2.40625 -1.71875q1.59375 -0.625 3.9375 -0.625q1.375 0 2.484375 0.203125q1.109375 0.1875 2.046875 0.578125q0.9375 0.375 1.71875 0.953125q0.796875 0.578125 1.515625 1.34375l-1.75 2.125l-0.296875 0.34375l-0.203125 -0.203125q-0.046875 -0.34375 -0.203125 -0.65625q-0.140625 -0.328125 -0.609375 -0.796875q-0.984375 -0.765625 -2.21875 -1.171875q-1.234375 -0.40625 -2.390625 -0.40625q-1.703125 0 -2.953125 0.59375q-1.234375 0.59375 -1.234375 1.828125q0 0.640625 0.453125 1.265625q0.453125 0.625 1.640625 1.25q1.203125 0.609375 3.421875 1.25q2.421875 0.765625 3.890625 1.5625q1.484375 0.78125 2.140625 1.8125q0.65625 1.015625 0.65625 2.421875q0 1.625 -0.875 3.03125q-0.875 1.40625 -2.671875 2.234375q-1.78125 0.828125 -4.515625 0.828125l0 0z" fill-rule="nonzero"/><path fill="#000000" fill-opacity="0.0" d="m617.9265 184.87665l217.7638 0l0 57.19684l-217.7638 0z" fill-rule="evenodd"/><path fill="#000000" d="m640.489 234.83664l0 -6.53125l-11.515625 0l0 -2.171875l12.15625 -17.921875l2.515625 0l0 17.625l3.421875 0l0 2.515625l-3.421875 0l0 6.484375l-3.15625 0zm-8.0625 -9.046875l8.0625 0l0 -12.203125l-8.0625 12.203125zm29.390564 9.046875l0 -6.53125l-11.515625 0l0 -2.171875l12.15625 -17.921875l2.515625 0l0 17.625l3.421875 0l0 2.515625l-3.421875 0l0 6.484375l-3.15625 0zm-8.0625 -9.046875l8.0625 0l0 -12.203125l-8.0625 12.203125zm26.96875 9.46875q-2.65625 0 -4.515625 -1.53125q-1.84375 -1.53125 -2.8125 -4.34375q-0.953125 -2.828125 -0.953125 -6.65625q0 -4.78125 1.171875 -8.0625q1.171875 -3.28125 3.28125 -4.984375q2.109375 -1.71875 4.9375 -1.71875q1.65625 0 3.125 0.609375q1.46875 0.59375 2.71875 1.828125l-1.890625 2.125l-0.296875 0.34375l-0.203125 -0.21875q-0.046875 -0.328125 -0.203125 -0.625q-0.140625 -0.3125 -0.703125 -0.78125q-0.34375 -0.25 -0.734375 -0.375q-0.375 -0.125 -0.796875 -0.1875q-0.421875 -0.078125 -0.9375 -0.078125q-0.6875 0 -1.546875 0.265625q-0.84375 0.25 -1.703125 0.890625q-0.84375 0.640625 -1.59375 1.796875q-0.75 1.140625 -1.203125 2.953125q-0.4375 1.8125 -0.484375 4.375q0.59375 -1.015625 1.484375 -1.71875q0.90625 -0.703125 1.96875 -1.078125q1.078125 -0.390625 2.1875 -0.390625q1.484375 0 2.796875 0.625q1.328125 0.609375 2.328125 1.765625q1.015625 1.140625 1.578125 2.75q0.578125 1.59375 0.578125 3.546875q0 2.65625 -1.03125 4.65625q-1.015625 2.0 -2.71875 3.109375q-1.703125 1.109375 -3.828125 1.109375l0 0zm0.125 -2.640625q0.890625 0 1.71875 -0.40625q0.84375 -0.40625 1.46875 -1.171875q0.640625 -0.765625 1.0 -1.921875q0.375 -1.15625 0.375 -2.6875q0 -1.625 -0.40625 -2.765625q-0.40625 -1.15625 -1.09375 -1.90625q-0.671875 -0.75 -1.515625 -1.109375q-0.828125 -0.359375 -1.640625 -0.359375q-0.765625 0 -1.515625 0.28125q-0.734375 0.28125 -1.421875 0.765625q-0.6875 0.484375 -1.265625 1.125q-0.578125 0.640625 -1.0 1.40625q-0.171875 1.453125 0.109375 3.0q0.28125 1.53125 0.984375 2.828125q0.703125 1.296875 1.765625 2.109375q1.0625 0.8125 2.4375 0.8125l0 0zm44.140564 2.515625q-1.875 0 -3.078125 -0.640625q-1.1875 -0.640625 -1.828125 -1.984375q-0.640625 -1.34375 -0.828125 -3.390625q-0.1875 -2.046875 -0.109375 -4.859375l0.515625 -13.90625l3.203125 -0.390625l0.421875 -0.03125l0.046875 0.296875q-0.21875 0.296875 -0.375 0.59375q-0.140625 0.296875 -0.21875 1.03125l-0.390625 4.8125l0.125 0.765625l-0.296875 7.046875q-0.125 3.234375 0.171875 5.015625q0.296875 1.765625 1.0625 2.421875q0.765625 0.65625 2.046875 0.65625q1.40625 0 2.5 -0.546875q1.09375 -0.5625 2.28125 -1.40625l0.9375 2.421875q-1.453125 1.078125 -2.984375 1.59375q-1.53125 0.5 -3.203125 0.5l0 0zm-9.765625 -19.796875l14.03125 0l0 2.515625l-14.03125 0l0 -2.515625zm22.609314 19.5l0 -2.46875l4.984375 0l0 -14.546875l-4.734375 0l0 -2.484375l7.8125 0l0 17.03125l4.5625 0l0 2.46875l-12.625 0zm6.5625 -23.59375q-0.890625 0 -1.53125 -0.640625q-0.640625 -0.640625 -0.640625 -1.53125q0 -0.9375 0.609375 -1.578125q0.625 -0.640625 1.5625 -0.640625q0.90625 0 1.5625 0.671875q0.65625 0.65625 0.65625 1.546875q0 0.890625 -0.65625 1.53125q-0.65625 0.640625 -1.5625 0.640625zm12.125 23.59375l0 -19.5l2.8125 0l0 1.921875q0.46875 -0.71875 1.078125 -1.25q0.625 -0.53125 1.375 -0.828125q0.75 -0.3125 1.515625 -0.3125q0.84375 0 1.5625 0.375q0.734375 0.359375 1.21875 1.0q0.5 0.640625 0.671875 1.484375q0.390625 -0.84375 1.046875 -1.484375q0.65625 -0.640625 1.53125 -1.0q0.875 -0.375 1.8125 -0.375q0.984375 0 1.703125 0.390625q0.734375 0.390625 1.203125 1.046875q0.46875 0.65625 0.671875 1.578125q0.21875 0.921875 0.171875 1.984375l0 14.96875l-2.8125 0l0 -13.828125q0 -1.78125 -0.234375 -2.59375q-0.234375 -0.8125 -0.65625 -1.046875q-0.421875 -0.234375 -0.9375 -0.234375q-0.8125 0 -1.515625 0.75q-0.703125 0.75 -1.15625 1.859375q-0.4375 1.109375 -0.4375 2.21875l0 12.875l-2.859375 0l0 -13.5625q0 -2.4375 -0.453125 -3.234375q-0.453125 -0.8125 -1.6875 -0.8125q-0.46875 0 -0.96875 0.3125q-0.484375 0.3125 -0.90625 0.890625q-0.421875 0.578125 -0.6875 1.4375q-0.25 0.84375 -0.25 1.953125l0 13.015625l-2.8125 0zm31.312439 0.421875q-2.140625 0 -3.890625 -0.65625q-1.75 -0.65625 -3.015625 -1.9375q-1.25 -1.28125 -1.9375 -3.171875q-0.671875 -1.90625 -0.671875 -4.34375q0 -2.46875 0.703125 -4.390625q0.703125 -1.921875 1.90625 -3.21875q1.21875 -1.296875 2.859375 -1.984375q1.65625 -0.6875 3.484375 -0.6875q1.671875 0 3.109375 0.5625q1.453125 0.546875 2.515625 1.6875q1.078125 1.125 1.6875 2.875q0.625 1.75 0.625 4.140625q0 0.34375 -0.03125 0.703125q-0.015625 0.359375 -0.0625 0.703125l-13.859375 0q0.09375 1.875 0.640625 3.265625q0.5625 1.375 1.453125 2.25q0.890625 0.875 2.0625 1.3125q1.171875 0.421875 2.5 0.421875q1.03125 0 1.921875 -0.234375q0.890625 -0.234375 1.671875 -0.71875q0.796875 -0.5 1.4375 -1.21875l1.703125 1.65625q-0.8125 0.984375 -1.859375 1.671875q-1.03125 0.671875 -2.28125 0.984375q-1.234375 0.328125 -2.671875 0.328125zm-6.453125 -12.109375l10.71875 0q0 -1.359375 -0.375 -2.453125q-0.359375 -1.09375 -1.015625 -1.875q-0.65625 -0.796875 -1.578125 -1.1875q-0.921875 -0.40625 -2.078125 -0.40625q-1.015625 0 -1.9375 0.34375q-0.90625 0.328125 -1.6875 1.078125q-0.765625 0.75 -1.296875 1.859375q-0.53125 1.109375 -0.75 2.640625zm26.875 12.109375q-1.625 0 -3.09375 -0.34375q-1.46875 -0.328125 -2.765625 -1.015625q-1.296875 -0.6875 -2.40625 -1.703125l1.703125 -2.90625l0.25 -0.375l0.265625 0.15625q0.078125 0.34375 0.1875 0.71875q0.109375 0.359375 0.578125 0.859375q0.890625 0.90625 2.140625 1.484375q1.265625 0.578125 3.234375 0.578125q1.578125 0 2.65625 -0.390625q1.09375 -0.390625 1.6875 -1.09375q0.59375 -0.703125 0.59375 -1.640625q0 -0.640625 -0.25 -1.125q-0.25 -0.5 -0.828125 -0.921875q-0.578125 -0.421875 -1.515625 -0.84375q-0.9375 -0.4375 -2.3125 -0.859375q-2.21875 -0.640625 -3.875 -1.484375q-1.65625 -0.859375 -2.5625 -1.984375q-0.890625 -1.140625 -0.890625 -2.59375q0 -1.484375 0.8125 -2.5625q0.8125 -1.09375 2.40625 -1.71875q1.59375 -0.625 3.9375 -0.625q1.375 0 2.484375 0.203125q1.109375 0.1875 2.046875 0.578125q0.9375 0.375 1.71875 0.953125q0.796875 0.578125 1.515625 1.34375l-1.75 2.125l-0.296875 0.34375l-0.203125 -0.203125q-0.046875 -0.34375 -0.203125 -0.65625q-0.140625 -0.328125 -0.609375 -0.796875q-0.984375 -0.765625 -2.21875 -1.171875q-1.234375 -0.40625 -2.390625 -0.40625q-1.703125 0 -2.953125 0.59375q-1.234375 0.59375 -1.234375 1.828125q0 0.640625 0.453125 1.265625q0.453125 0.625 1.640625 1.25q1.203125 0.609375 3.421875 1.25q2.421875 0.765625 3.890625 1.5625q1.484375 0.78125 2.140625 1.8125q0.65625 1.015625 0.65625 2.421875q0 1.625 -0.875 3.03125q-0.875 1.40625 -2.671875 2.234375q-1.78125 0.828125 -4.515625 0.828125l0 0z" fill-rule="nonzero"/><path fill="#fff2cc" d="m486.16272 402.25986l442.48822 0l0 67.77951l-442.48822 0z" fill-rule="evenodd"/><path fill="#000000" d="m517.694 434.26672l-20.15625 0l0 -3.5l20.15625 0l0 3.5zm0 9.265625l-20.15625 0l0 -3.5l20.15625 0l0 3.5z" fill-rule="nonzero"/><path fill="#000000" d="m548.3384 445.65735l11.390625 -14.640625l0.984375 2.015625l-11.390625 14.453125l-0.984375 -1.828125zm6.09375 7.03125q-2.640625 0 -4.484375 -1.578125q-1.828125 -1.578125 -2.78125 -4.625q-0.953125 -3.046875 -0.953125 -7.40625q0 -4.21875 0.953125 -7.265625q0.953125 -3.046875 2.78125 -4.6875q1.84375 -1.65625 4.484375 -1.65625q2.65625 0 4.484375 1.65625q1.84375 1.640625 2.796875 4.6875q0.953125 3.046875 0.953125 7.265625q0 4.359375 -0.953125 7.40625q-0.953125 3.046875 -2.796875 4.625q-1.828125 1.578125 -4.484375 1.578125zm0 -2.59375q1.625 0 2.78125 -1.28125q1.15625 -1.28125 1.765625 -3.734375q0.625 -2.453125 0.625 -6.0q0 -3.375 -0.625 -5.8125q-0.609375 -2.453125 -1.765625 -3.8125q-1.15625 -1.375 -2.78125 -1.375q-1.609375 0 -2.765625 1.375q-1.15625 1.359375 -1.78125 3.8125q-0.609375 2.4375 -0.609375 5.8125q0 3.546875 0.609375 6.0q0.625 2.453125 1.78125 3.734375q1.15625 1.28125 2.765625 1.28125zm20.828064 2.59375q-1.03125 0 -1.765625 -0.71875q-0.71875 -0.734375 -0.71875 -1.71875q0 -0.96875 0.71875 -1.6875q0.734375 -0.734375 1.765625 -0.734375q0.984375 0 1.703125 0.734375q0.71875 0.71875 0.71875 1.6875q0 0.984375 -0.71875 1.71875q-0.71875 0.71875 -1.703125 0.71875zm15.734375 -7.03125l11.390625 -14.640625l0.984375 2.015625l-11.390625 14.453125l-0.984375 -1.828125zm6.09375 7.03125q-2.640625 0 -4.484375 -1.578125q-1.828125 -1.578125 -2.78125 -4.625q-0.953125 -3.046875 -0.953125 -7.40625q0 -4.21875 0.953125 -7.265625q0.953125 -3.046875 2.78125 -4.6875q1.84375 -1.65625 4.484375 -1.65625q2.65625 0 4.484375 1.65625q1.84375 1.640625 2.796875 4.6875q0.953125 3.046875 0.953125 7.265625q0 4.359375 -0.953125 7.40625q-0.953125 3.046875 -2.796875 4.625q-1.828125 1.578125 -4.484375 1.578125zm0 -2.59375q1.625 0 2.78125 -1.28125q1.15625 -1.28125 1.765625 -3.734375q0.625 -2.453125 0.625 -6.0q0 -3.375 -0.625 -5.8125q-0.609375 -2.453125 -1.765625 -3.8125q-1.15625 -1.375 -2.78125 -1.375q-1.609375 0 -2.765625 1.375q-1.15625 1.359375 -1.78125 3.8125q-0.609375 2.4375 -0.609375 5.8125q0 3.546875 0.609375 6.0q0.625 2.453125 1.78125 3.734375q1.15625 1.28125 2.765625 1.28125zm21.812439 2.546875q-2.65625 0 -4.515625 -1.53125q-1.84375 -1.53125 -2.8125 -4.34375q-0.953125 -2.828125 -0.953125 -6.65625q0 -4.78125 1.171875 -8.0625q1.171875 -3.28125 3.28125 -4.984375q2.109375 -1.71875 4.9375 -1.71875q1.65625 0 3.125 0.609375q1.46875 0.59375 2.71875 1.828125l-1.890625 2.125l-0.296875 0.34375l-0.203125 -0.21875q-0.046875 -0.328125 -0.203125 -0.625q-0.140625 -0.3125 -0.703125 -0.78125q-0.34375 -0.25 -0.734375 -0.375q-0.375 -0.125 -0.796875 -0.1875q-0.421875 -0.078125 -0.9375 -0.078125q-0.6875 0 -1.546875 0.265625q-0.84375 0.25 -1.703125 0.890625q-0.84375 0.640625 -1.59375 1.796875q-0.75 1.140625 -1.203125 2.953125q-0.4375 1.8125 -0.484375 4.375q0.59375 -1.015625 1.484375 -1.71875q0.90625 -0.703125 1.96875 -1.078125q1.078125 -0.390625 2.1875 -0.390625q1.484375 0 2.796875 0.625q1.328125 0.609375 2.328125 1.765625q1.015625 1.140625 1.578125 2.75q0.578125 1.59375 0.578125 3.546875q0 2.65625 -1.03125 4.65625q-1.015625 2.0 -2.71875 3.109375q-1.703125 1.109375 -3.828125 1.109375l0 0zm0.125 -2.640625q0.890625 0 1.71875 -0.40625q0.84375 -0.40625 1.46875 -1.171875q0.640625 -0.765625 1.0 -1.921875q0.375 -1.15625 0.375 -2.6875q0 -1.625 -0.40625 -2.765625q-0.40625 -1.15625 -1.09375 -1.90625q-0.671875 -0.75 -1.515625 -1.109375q-0.828125 -0.359375 -1.640625 -0.359375q-0.765625 0 -1.515625 0.28125q-0.734375 0.28125 -1.421875 0.765625q-0.6875 0.484375 -1.265625 1.125q-0.578125 0.640625 -1.0 1.40625q-0.171875 1.453125 0.109375 3.0q0.28125 1.53125 0.984375 2.828125q0.703125 1.296875 1.765625 2.109375q1.0625 0.8125 2.4375 0.8125l0 0zm16.671875 2.21875q1.234375 -4.09375 2.53125 -8.03125q1.3125 -3.953125 2.6875 -7.875q1.390625 -3.921875 2.890625 -7.859375l-11.34375 0l0 -2.8125l15.046875 0l0 1.671875q-1.1875 3.0625 -2.34375 6.140625q-1.15625 3.0625 -2.21875 6.1875q-1.0625 3.109375 -2.03125 6.25q-0.953125 3.125 -1.84375 6.328125l-3.375 0zm28.281189 0l0 -6.53125l-11.515625 0l0 -2.171875l12.15625 -17.921875l2.515625 0l0 17.625l3.421875 0l0 2.515625l-3.421875 0l0 6.484375l-3.15625 0zm-8.0625 -9.046875l8.0625 0l0 -12.203125l-8.0625 12.203125zm47.81244 9.390625q-2.640625 0 -4.671875 -1.296875q-2.015625 -1.3125 -3.171875 -3.59375q-1.15625 -2.28125 -1.15625 -5.21875q0 -2.984375 1.15625 -5.265625q1.15625 -2.28125 3.171875 -3.578125q2.03125 -1.3125 4.671875 -1.3125q2.65625 0 4.671875 1.3125q2.03125 1.296875 3.1875 3.578125q1.15625 2.28125 1.15625 5.265625q0 2.9375 -1.15625 5.21875q-1.15625 2.28125 -3.1875 3.59375q-2.015625 1.296875 -4.671875 1.296875zm0 -2.5625q1.71875 0 2.984375 -0.984375q1.28125 -0.984375 2.03125 -2.6875q0.75 -1.703125 0.75 -3.921875q0 -2.21875 -0.75 -3.921875q-0.75 -1.703125 -2.03125 -2.65625q-1.265625 -0.96875 -2.984375 -0.96875q-1.65625 0 -2.96875 0.96875q-1.296875 0.953125 -2.046875 2.65625q-0.734375 1.703125 -0.734375 3.921875q0 2.21875 0.734375 3.921875q0.75 1.703125 2.046875 2.6875q1.3125 0.984375 2.96875 0.984375zm15.75 -17.28125l3.203125 0l-0.140625 5.671875l-0.375 -0.625q0.25 -1.328125 0.890625 -2.34375q0.640625 -1.03125 1.53125 -1.734375q0.90625 -0.703125 1.96875 -1.0625q1.0625 -0.375 2.21875 -0.375q1.53125 0 2.828125 0.546875q1.3125 0.53125 2.328125 1.59375l-1.359375 2.390625l-0.171875 0.375l-0.296875 -0.171875q-0.09375 -0.328125 -0.265625 -0.625q-0.15625 -0.3125 -0.71875 -0.734375q-0.6875 -0.421875 -1.265625 -0.5625q-0.5625 -0.15625 -1.296875 -0.15625q-1.0625 0 -2.125 0.40625q-1.0625 0.390625 -1.9375 1.25q-0.875 0.859375 -1.390625 2.1875q-0.515625 1.3125 -0.515625 3.140625l0 10.375l-3.109375 0l0 -19.546875zm48.71869 19.921875q-2.65625 0 -4.515625 -1.53125q-1.84375 -1.53125 -2.8125 -4.34375q-0.953125 -2.828125 -0.953125 -6.65625q0 -4.78125 1.171875 -8.0625q1.171875 -3.28125 3.28125 -4.984375q2.109375 -1.71875 4.9375 -1.71875q1.65625 0 3.125 0.609375q1.46875 0.59375 2.71875 1.828125l-1.890625 2.125l-0.296875 0.34375l-0.203125 -0.21875q-0.046875 -0.328125 -0.203125 -0.625q-0.140625 -0.3125 -0.703125 -0.78125q-0.34375 -0.25 -0.734375 -0.375q-0.375 -0.125 -0.796875 -0.1875q-0.421875 -0.078125 -0.9375 -0.078125q-0.6875 0 -1.546875 0.265625q-0.84375 0.25 -1.703125 0.890625q-0.84375 0.640625 -1.59375 1.796875q-0.75 1.140625 -1.203125 2.953125q-0.4375 1.8125 -0.484375 4.375q0.59375 -1.015625 1.484375 -1.71875q0.90625 -0.703125 1.96875 -1.078125q1.078125 -0.390625 2.1875 -0.390625q1.484375 0 2.796875 0.625q1.328125 0.609375 2.328125 1.765625q1.015625 1.140625 1.578125 2.75q0.578125 1.59375 0.578125 3.546875q0 2.65625 -1.03125 4.65625q-1.015625 2.0 -2.71875 3.109375q-1.703125 1.109375 -3.828125 1.109375l0 0zm0.125 -2.640625q0.890625 0 1.71875 -0.40625q0.84375 -0.40625 1.46875 -1.171875q0.640625 -0.765625 1.0 -1.921875q0.375 -1.15625 0.375 -2.6875q0 -1.625 -0.40625 -2.765625q-0.40625 -1.15625 -1.09375 -1.90625q-0.671875 -0.75 -1.515625 -1.109375q-0.828125 -0.359375 -1.640625 -0.359375q-0.765625 0 -1.515625 0.28125q-0.734375 0.28125 -1.421875 0.765625q-0.6875 0.484375 -1.265625 1.125q-0.578125 0.640625 -1.0 1.40625q-0.171875 1.453125 0.109375 3.0q0.28125 1.53125 0.984375 2.828125q0.703125 1.296875 1.765625 2.109375q1.0625 0.8125 2.4375 0.8125l0 0zm20.218689 2.6875q-1.03125 0 -1.765625 -0.71875q-0.71875 -0.734375 -0.71875 -1.71875q0 -0.96875 0.71875 -1.6875q0.734375 -0.734375 1.765625 -0.734375q0.984375 0 1.703125 0.734375q0.71875 0.71875 0.71875 1.6875q0 0.984375 -0.71875 1.71875q-0.71875 0.71875 -1.703125 0.71875zm17.78125 -0.46875q1.234375 -4.09375 2.53125 -8.03125q1.3125 -3.953125 2.6875 -7.875q1.390625 -3.921875 2.890625 -7.859375l-11.34375 0l0 -2.8125l15.046875 0l0 1.671875q-1.1875 3.0625 -2.34375 6.140625q-1.15625 3.0625 -2.21875 6.1875q-1.0625 3.109375 -2.03125 6.25q-0.953125 3.125 -1.84375 6.328125l-3.375 0zm28.281189 0l0 -6.53125l-11.515625 0l0 -2.171875l12.15625 -17.921875l2.515625 0l0 17.625l3.421875 0l0 2.515625l-3.421875 0l0 6.484375l-3.15625 0zm-8.0625 -9.046875l8.0625 0l0 -12.203125l-8.0625 12.203125zm17.796875 9.046875l14.703125 -26.578125l2.4375 0l-14.84375 26.578125l-2.296875 0zm13.859375 0.421875q-1.28125 0 -2.375 -0.71875q-1.078125 -0.734375 -1.75 -1.984375q-0.65625 -1.265625 -0.65625 -2.796875q0 -1.578125 0.65625 -2.8125q0.671875 -1.234375 1.75 -1.984375q1.09375 -0.75 2.375 -0.75q1.3125 0 2.375 0.75q1.078125 0.75 1.71875 2.015625q0.640625 1.25 0.640625 2.78125q0 1.53125 -0.640625 2.796875q-0.640625 1.25 -1.734375 1.984375q-1.078125 0.71875 -2.359375 0.71875zm0.046875 -2.125q0.59375 0 1.078125 -0.359375q0.5 -0.375 0.796875 -1.109375q0.296875 -0.75 0.296875 -1.859375q0 -0.984375 -0.28125 -1.75q-0.28125 -0.765625 -0.765625 -1.21875q-0.484375 -0.453125 -1.21875 -0.453125q-0.546875 0 -1.0625 0.34375q-0.515625 0.34375 -0.84375 1.078125q-0.3125 0.71875 -0.3125 1.90625q0 1.203125 0.34375 1.96875q0.34375 0.765625 0.875 1.109375q0.53125 0.34375 1.09375 0.34375zm-9.90625 -14.203125q-1.28125 0 -2.375 -0.71875q-1.078125 -0.734375 -1.75 -2.015625q-0.65625 -1.28125 -0.65625 -2.859375q0 -1.578125 0.65625 -2.8125q0.671875 -1.234375 1.75 -1.984375q1.09375 -0.75 2.375 -0.75q1.328125 0 2.390625 0.75q1.0625 0.75 1.71875 2.015625q0.671875 1.25 0.671875 2.828125q0 1.625 -0.625 2.890625q-0.609375 1.25 -1.703125 1.953125q-1.078125 0.703125 -2.453125 0.703125zm0 -2.265625q0.5625 0 1.03125 -0.3125q0.46875 -0.328125 0.765625 -1.0625q0.296875 -0.75 0.296875 -1.953125q0 -0.890625 -0.203125 -1.53125q-0.1875 -0.640625 -0.484375 -1.046875q-0.296875 -0.40625 -0.703125 -0.578125q-0.40625 -0.171875 -0.78125 -0.171875q-0.515625 0 -0.984375 0.328125q-0.46875 0.3125 -0.796875 1.046875q-0.3125 0.71875 -0.3125 1.953125q0 1.203125 0.3125 1.921875q0.328125 0.71875 0.8125 1.0625q0.5 0.34375 1.046875 0.34375z" fill-rule="nonzero"/></g></svg>